<?xml version="1.0" standalone="no"?>
<!DOCTYPE svg PUBLIC "-//W3C//DTD SVG 20010904//EN"
 "http://www.w3.org/TR/2001/REC-SVG-20010904/DTD/svg10.dtd">
<svg version="1.0" xmlns="http://www.w3.org/2000/svg"
 width="832.000000pt" height="832.000000pt" viewBox="0 0 832.000000 832.000000"
 preserveAspectRatio="xMidYMid meet">
<metadata>
Created by potrace 1.11, written by Peter Selinger 2001-2013
</metadata>
<g transform="translate(0.000000,832.000000) scale(0.100000,-0.100000)"
fill="#000000" stroke="none">
<path d="M4177 6774 c-1 -1 -38 -5 -82 -8 -44 -4 -93 -8 -110 -10 -95 -12
-145 -19 -185 -26 -24 -5 -48 -6 -52 -4 -5 3 -8 1 -8 -3 0 -5 -8 -9 -17 -9
-19 -1 -43 -6 -113 -23 -25 -7 -54 -14 -65 -16 -53 -12 -286 -89 -415 -137
-213 -80 -441 -168 -475 -184 -26 -11 -692 -272 -870 -339 -33 -13 -73 -29
-90 -36 -16 -7 -32 -13 -35 -13 -3 -1 -24 -9 -45 -18 -22 -9 -168 -67 -325
-129 -286 -112 -482 -197 -488 -211 -2 -5 -12 -8 -23 -8 -10 0 -19 -4 -19 -9
0 -5 -8 -12 -17 -15 -77 -28 -198 -138 -236 -216 -29 -60 -29 -149 1 -205 47
-89 169 -194 288 -247 24 -10 45 -22 48 -27 3 -4 23 -13 45 -21 23 -7 41 -16
41 -19 0 -3 -32 -37 -70 -75 -39 -39 -70 -73 -70 -77 0 -4 -6 -14 -13 -21 -36
-37 -78 -104 -117 -188 -43 -93 -41 -91 -90 -107 -24 -9 -67 -30 -95 -48 -110
-72 -184 -180 -222 -325 -2 -8 -6 -58 -8 -110 -2 -80 1 -108 22 -174 14 -44
37 -98 51 -120 29 -45 123 -143 161 -167 l24 -15 -26 -89 c-14 -50 -33 -115
-41 -145 -8 -30 -31 -113 -51 -185 -39 -138 -53 -191 -59 -215 -2 -8 -11 -40
-20 -71 -9 -31 -19 -65 -21 -75 -3 -11 -16 -59 -30 -109 -15 -49 -28 -100 -31
-112 -2 -12 -9 -35 -15 -50 -6 -16 -13 -37 -15 -48 -2 -11 -20 -76 -39 -145
-19 -69 -38 -134 -40 -145 -3 -11 -28 -101 -56 -200 -62 -218 -65 -242 -40
-275 l20 -25 664 -3 664 -2 26 26 c31 30 30 50 -3 166 -11 40 -27 96 -35 123
-14 50 -36 131 -41 150 -1 6 -32 118 -69 250 -37 132 -68 247 -70 255 -2 8
-12 44 -24 80 -11 36 -22 76 -25 90 -2 14 -9 36 -14 50 -5 14 -10 30 -11 35
-1 6 -7 28 -13 50 -6 22 -12 45 -14 50 -1 6 -28 102 -59 215 -105 375 -102
360 -69 360 8 0 14 4 14 9 0 5 8 12 18 15 29 10 142 130 142 152 0 5 5 15 12
22 14 14 35 70 53 141 21 84 11 262 -18 299 -5 6 -6 12 -3 12 4 0 -8 30 -28
66 -34 65 -34 67 -19 100 9 19 20 34 25 34 4 0 8 5 8 10 0 13 32 60 79 115 48
58 203 215 221 225 10 5 58 -9 135 -39 66 -26 192 -76 280 -110 88 -34 170
-66 183 -72 40 -16 65 -26 177 -69 61 -23 124 -48 142 -56 17 -8 34 -14 38
-14 4 0 21 -6 38 -14 18 -8 91 -37 162 -65 72 -27 207 -80 300 -116 300 -118
526 -195 670 -231 160 -39 329 -68 475 -80 146 -12 185 -14 320 -14 216 0 414
16 570 45 14 3 39 7 55 10 30 5 56 10 98 21 12 3 33 7 47 10 37 7 232 63 255
73 11 5 74 28 140 51 124 43 235 85 270 100 11 5 92 37 180 71 88 33 169 65
180 70 11 4 83 33 160 63 131 50 204 79 415 161 209 82 384 150 490 191 63 25
129 52 147 60 17 8 34 14 39 14 24 0 446 180 456 194 4 6 8 7 8 3 0 -10 137
64 200 107 115 79 184 182 183 273 -1 101 -71 200 -202 287 -68 44 -248 135
-313 157 -21 7 -38 17 -38 21 0 4 -6 8 -13 8 -11 0 -112 38 -217 83 -14 6 -27
11 -30 12 -20 5 -62 21 -100 38 -25 11 -54 22 -64 24 -11 2 -24 7 -30 12 -6 5
-29 14 -51 21 -22 7 -45 16 -51 21 -6 5 -14 6 -17 2 -4 -3 -7 -2 -7 4 0 5 -6
10 -12 10 -13 0 -171 61 -245 94 -24 10 -47 19 -53 19 -6 0 -29 8 -53 19 -23
10 -91 38 -152 61 -60 23 -124 48 -142 56 -17 8 -34 14 -38 14 -4 0 -21 6 -38
14 -18 8 -90 37 -162 65 -71 28 -143 56 -160 62 -16 7 -32 13 -35 14 -3 1 -14
5 -25 10 -125 49 -314 122 -370 141 -38 14 -79 29 -90 35 -30 14 -287 97 -318
103 -15 2 -30 7 -35 10 -5 3 -19 7 -33 10 -13 3 -58 12 -99 21 -101 22 -98 22
-155 29 -27 4 -57 9 -65 11 -8 2 -46 6 -83 10 -37 3 -78 9 -90 11 -22 6 -495
13 -500 8z"/>
<path d="M1836 4152 c-3 -6 -15 -58 -41 -183 -2 -9 -6 -33 -9 -53 -3 -19 -11
-57 -17 -83 -6 -27 -12 -57 -15 -68 -2 -11 -11 -55 -20 -98 -8 -42 -17 -87
-20 -100 -9 -50 -13 -69 -18 -85 -3 -10 -8 -31 -10 -47 -2 -17 -23 -122 -46
-235 -23 -113 -44 -214 -46 -225 -1 -11 -5 -31 -8 -45 -13 -59 -17 -76 -20
-95 -2 -11 -25 -123 -51 -250 -26 -126 -49 -239 -50 -250 -2 -11 -8 -41 -14
-67 -18 -80 7 -160 69 -216 73 -65 266 -170 360 -194 19 -5 44 -13 55 -18 37
-16 235 -75 246 -72 3 0 27 -5 52 -13 26 -8 47 -12 47 -9 0 3 9 0 19 -6 11 -5
35 -12 53 -14 18 -3 67 -12 108 -20 99 -20 129 -26 167 -31 18 -3 70 -11 115
-19 86 -15 135 -22 203 -30 22 -3 57 -8 78 -11 20 -3 54 -7 75 -10 20 -3 60
-8 87 -10 57 -6 127 -13 200 -21 28 -3 73 -8 100 -10 28 -1 84 -6 125 -9 41
-3 98 -8 125 -10 350 -27 1008 -27 1320 0 33 2 94 7 135 10 85 6 162 13 235
20 136 15 172 18 198 19 15 1 27 3 27 6 0 3 11 5 24 5 14 -1 67 4 118 12 51 7
111 15 133 18 22 2 49 6 60 9 30 6 176 29 205 32 14 1 25 3 25 4 0 1 9 3 20 5
11 2 36 7 55 11 19 4 42 8 50 9 48 6 398 91 435 105 17 7 41 14 54 16 31 6
274 103 281 112 3 4 25 17 50 30 96 48 187 148 195 214 4 29 -6 94 -30 208 -3
14 -7 34 -9 45 -2 11 -12 56 -21 100 -10 44 -19 89 -20 100 -2 11 -17 85 -33
165 -17 80 -32 159 -35 175 -3 17 -8 37 -11 45 -3 8 -7 31 -10 50 -5 32 -30
155 -42 205 -3 11 -7 34 -9 50 -3 17 -6 39 -9 50 -9 38 -35 161 -39 185 -3 14
-24 117 -47 230 -23 113 -44 216 -46 230 -8 43 -27 135 -29 138 -2 2 -27 -8
-58 -22 -30 -13 -58 -22 -61 -18 -3 3 -6 0 -6 -6 0 -7 -6 -12 -12 -12 -7 0
-47 -14 -88 -31 -187 -77 -781 -294 -830 -304 -3 -1 -66 -21 -140 -44 -74 -24
-136 -43 -137 -43 -2 1 -21 -5 -43 -13 -22 -8 -44 -15 -48 -16 -4 -1 -11 -3
-17 -4 -50 -15 -175 -47 -195 -51 -14 -3 -52 -12 -85 -21 -33 -8 -64 -16 -70
-17 -42 -9 -124 -26 -145 -30 -14 -3 -35 -7 -46 -10 -30 -6 -95 -17 -124 -21
-23 -2 -60 -8 -150 -20 -131 -19 -353 -23 -515 -11 -122 10 -131 11 -175 19
-19 4 -51 9 -70 12 -19 2 -47 7 -63 10 -15 3 -53 9 -85 15 -31 6 -68 13 -82
16 -14 3 -34 7 -45 9 -35 5 -348 85 -417 106 -37 11 -73 22 -80 23 -7 2 -20 5
-28 8 -8 3 -135 45 -283 93 -147 48 -331 112 -410 142 -78 30 -146 55 -152 57
-14 3 -250 95 -300 116 -120 52 -165 68 -169 62z"/>
</g>
</svg>
