<?xml version="1.0" encoding="UTF-8"?>
<svg width="702.3" height="475.48" enable-background="new 0 0 649.074 475.477" overflow="visible" version="1.0" viewBox="0 0 649.074 475.477" xml:space="preserve" xmlns="http://www.w3.org/2000/svg">
<g transform="translate(-6.4696 -3.3244e-6)">
	<path d="m344.23 107.9c-2.637-20.681 32.415-27.522 48.128-25.997 29.435 2.858 59.129 9.321 88.796 8.993 12.178-0.135 20.227-4.123 32.096 2.003 27.24 14.061 17.789 47.584 14.758 73.005-2.797 23.453-7.154 46.546-9.53 70.069-1.496 14.819-0.675 33.767-4.199 48.013-1.983 8.021-7.286 10.766-13.977 15.111-7.662 4.978-18.764 15.574-26.98 17.844-12.777 3.529-36.769-9.019-48.294-13.043-23.972-8.369-49.077-14.236-73.758-20.074-4.234-1.002-17.354-1.097-20.404-3.929-3.754-3.485-0.837-2.887-1.589-8.835-3.378-26.724 0.808-52.369 8.006-78.007 7.494-26.69 15.914-58.703 6.948-86.155" fill="#ccebb9"/>
	<path d="m161.23 332.9c9.299 3.793 25.092 19.242 36 12.874 6.155 6.479 24.871-10.554 30.977-14.093 16.825-9.75 34.41-20.924 52-29.777 19.038-9.582 36.489-21.281 54.824-31.805 14.545-8.348 14.508-19.195 15.195-36.147 1.673-41.209 7.058-80.822-4.242-120.83-4.028-14.264-8.689-20.387-24.754-21.219-6.312-0.327-12.135 0.272-18.271-1.254-4.97-1.236-9.68-5.072-14.729-5.746-12.542-1.672-36.53 2.903-48.249 8-20.519 8.925-38.887 21.214-60.651 28.052-13.908 4.37-30.104 5.626-42.995 12.722-9.712 5.347-6.544 7.544-9.256 16.223-2.068 6.617-7.48 11.924-9.143 19.003-2.682 11.423 2.797 21.807 6.266 32.449 10.694 32.813 15.855 61.204 16.028 95.368 0.053 10.43-6.016 20.736-1.048 28.957 5.091 8.426 13.952 10.12 23.048 7.223" fill="#d6efba"/>
	<path d="m198.23 158.9c-22.479 23.181 1.231 62.037 7.752 88 7.545 30.042 1.472 58.134 2.248 88.248 0.899 34.932 49.799 32.293 74.777 40.752 23.706 8.029 50.677 24.646 76.445 22.053 21.054-2.119 38.97-17.379 55.754-29 20.295-14.053 51.155-26.714 67.02-46.053 9.267-11.295 5.845-30.64 7.004-44.951 2.721-33.577 6.574-67.462 3.974-101.07-1.14-14.729-0.244-35.339-6.225-48.95-6.46-14.703-20.098-15.746-34.701-17.749-27.601-3.787-55.483-5.302-83.115-8.497-15.57-1.801-27.325-2.806-43.106 2.17-29.594 9.332-58.332 21.204-87.607 30.803-13.134 4.307-28.551 7.288-38.219 17.246l-2.001 6.999z" fill="#66bb50" stroke="#000"/>
</g>
<path d="m436.81 198.45c2.49 12.992 8.447 25.604 10.457 38.656 2.918 18.934-5.714 39.037-21.086 50.759-14.701 11.213-33.045 17.996-50.731 22.925-16.356 4.557-32.039 5.101-46.505 15.778-12.799 9.447-16.614 13.306-32.297 9.12-15.015-4.008-30.184-8.133-41.855-19.065-11.089-10.391-12.3-24.269-18.521-37.377-3.813-8.033-9.409-14.313-11.313-22.993-3.616-16.482 0.299-35.257-2.041-52.257-2.551-18.536-12.817-31.863 11.78-35.743 17.594-2.775 36.331-6.553 53.006-12.798 14.956-5.601 27.118-17.168 42.664-21.727 14.33-4.202 31.355 1.471 45.48 5.212 24.715 6.546 68.17 2.807 60.696 39.912-1.347 6.691-0.963 13.19 0.266 19.598z" fill="#a1dcea"/>
<path d="m234.17 195.68c9.987 5.469 26.372-0.529 39.194-3.765 20.87-5.266 42.9-10.491 66.241-26.518 5.298-3.64 10.197-7.825 15.003-12.083 2.549-2.258 12.985-9.125 13.551-12.261 1.44-7.995-12.252-0.417-14.601 1.563-7.033 5.931-13.755 13.461-19.983 20.299-12.101 13.281-25.216 25.666-39.409 36.691-13.794 10.716-28.85 18.668-43.502 28.294-6.043 3.97-18.038 7.712-21.458 14.082 5.817 0.299 12.322-0.224 18.035-1.335 11.761-2.287 27.19-12.252 39.216-9.823-5.404 5.097-15.05 5.372-21.381 10.283-10.895 8.452-22.052 17.336-32.51 26.265 7.542 0.752 16.039-2.925 23.221-4.643 12.679-3.032 24.52-8.569 36.938-11.966-2.257 6.51-15.316 13.508-21.271 17.286-10.247 6.502-21.571 11.119-32.058 17.307 8.731-1.745 16.724-6.488 25.629-7.723 7.641-1.059 24.026-2.627 30.16 2.249-7.415 3.596-18.549 0.272-26.792 2.924-7.706 2.478-14.596 6.551-20.084 12.477-4.029 4.35-6.689 10.465-10.659 14.391 3.433-8.886 14.985-17.434 22.23-22.991 7.511-5.763 15.948-9.62 24.713-13.106 3.345-1.331 9.886-2.46 11.979-5.471-23.798-1.198-42.354 5.056-61.301 19.242 1.619-8.405 11.085-16.305 17.354-21.279 11.518-9.137 24.217-15.406 37.84-20.559-9.54-3.454-26.551 0.37-35.782 3.017-8.768 2.513-15.641 7.08-23.366 11.583-2.229 1.299-2.988 2.893-5.436 2.427 1.28-8.842 16.636-17.111 23.431-21.347 8.673-5.406 17.741-8.703 26.883-13.021-15.602-4.726-29.603 1.331-43.785 6.611-2.438 0.908-11.625 5.952-13.701 3.28-2.163-2.785 3.57-7.898 5.438-9.392 6.401-5.118 13.361-9.718 19.955-14.799 10.479-8.075 19.296-8.887 28.552-11.538 25.645-7.344 50.138-11.718 77.84-27.597 13.492-7.734 27.585-19.85 41.467-31.067-37.426 23.51-64.12 6.863-98.985 20.558-13.856 5.443-25.785 15.634-37.339 24.753-6.269 4.947-12.472 10.832-19.333 14.938-5.456 3.266-12.499 4.869-15.051 11.516 4.539 2.205 12.538-0.125 17.445-0.233 24.104-0.526 41.846 10.946 70.646-4.579 20.253-10.918 37.37-26.745 56.326-39.625 8.633-5.866 17.897-12.547 28.489-13.414 12.522-1.024 25.445 2.452 37.604-1.944 0.855 12.443-1.333 24.735-3.068 37.047-1.353 9.597-2.354 20.216-6.104 29.249-3.057 7.364-9.871 12.946-12.556 20.207 7.264 3.058 17.077-13.069 19.823-18.236 3.342-6.286 6.667-19.252 12.568-23.171 1.358 8.168-4.525 20.827-7.819 28.044-4.301 9.424-12.898 15.552-17.461 24.491 8.339-5.479 27.565-18.949 28.023-29.989-6.521-0.657-16.802 7.654-22.698 10.617-5.256 2.642-9.179 6.349-14.111 9.309 5.606-7.554 12.6-14.441 18.398-22.083 3.46-4.561 6.588-8.989 11.104-12.406" fill="none" stroke="#e6e6e6" stroke-width=".8738"/>
<path d="m209.76 182.9c1.945-0.406 3.588-0.068 5 1" fill="#fff" stroke="#000"/>
<path d="m339.76 131.9c-0.493-3.449-1.144-6.703-2-10" fill="#fff" stroke="#000"/>
<path d="m209.76 177.9c1.333 0.667 2.667 1.333 4 2" fill="#fff" stroke="#000"/>
<path d="m426.76 290.9c1.85 2.459 4.309 4.582 7 6" fill="#fff" stroke="#000"/>
<path d="m316.76 336.9v8" fill="#fff" stroke="#000"/>
<path d="m427.76 289.9c3.52-0.823 6.511 0.307 9 3" fill="#fff" stroke="#000"/>
<path d="m229.76 309.9c3.597-0.83 7.319-1.17 11-1" fill="#fff" stroke="#000"/>
<path d="m430.76 284.9c2.546 2.254 5.686 3.67 9 4" fill="#fff" stroke="#000"/>
<path d="m218.76 263.9c1.333-0.333 2.667-0.666 4-1" fill="#fff" stroke="#000"/>
<path d="m433.76 281.9c2.837 1.434 5.896 2.456 9 3" fill="#fff" stroke="#000"/>
<path d="m435.76 177.9c1.333-0.333 2.667-0.667 4-1" fill="#fff" stroke="#000"/>
<path d="m436.76 277.9c3.334 2.25 7.229 3 11 2" fill="#fff" stroke="#000"/>
<path d="m435.76 172.9c2.768-0.507 5.337-1.928 7-4" fill="#fff" stroke="#000"/>
<path d="m440.76 272.9c1.556 4.434 5.713 5.199 10 4" fill="#fff" stroke="#000"/>
<path d="m434.76 165.9c4.943-3.208 9.709-6.359 12-12" fill="#fff" stroke="#000"/>
<path d="m441.76 268.9c3.623 1.442 7.464 1.461 11 0" fill="#fff" stroke="#000"/>
<path d="m435.76 159.9c3.426-4.726 8.173-8.926 9-15" fill="#fff" stroke="#000"/>
<path d="m442.76 263.9c4.193 0.253 7.756-1.516 10-5" fill="#fff" stroke="#000"/>
<path d="m431.76 154.9c2.819-2.913 5.048-6.155 6-10" fill="#fff" stroke="#000"/>
<path d="m412.76 417.9c-17.576-2.449-42.617-9.854-51.753-26.925-15.157-28.323 3.243-42.553 25.779-53.298 23.785-11.339 54.297-21.035 69.025-44.332 17.198-27.202 11.41-49.633 8.674-80.464-1.429-16.098 0.809-30.778-3.479-45.932-1.342-4.745-1.056-9.53-2.251-14.045-0.642-2.425-4.682-6.437-3.842-8.785 2.661-7.433 25.403-10.75 31.842-13.996 9.256-4.667 12.018-7.846 24.175-5.47 10.45 2.042 29.931 2.285 38.877 7.251 8.92 4.951 5.055 15.695 5.004 24.125-0.152 25.058-0.981 48.884-3.023 73.84-0.961 11.743-2.719 25.202-1.028 37.032 1.522 10.652 4.916 21.703 6.849 32.817-25.073 15.582-47.457 36.666-70.048 55.913-15.641 13.324-22.419 31.412-36.853 45.314-10.257 9.879-24.771 12.299-36.948 18.955" fill="#66bb50"/>
<path d="m399.76 417.9c-10.617 2.843-57.413-13.744-42.894-30.02 7.771-8.709 27.14-16.354 37.671-23.005 24.876-15.71 47.353-33.778 70.219-52.023 6.74-5.378 14.018-9.921 19.029-16.975 5.068-7.134 6.951-16.388 13.729-21.9-5.631 4.579 36.587 16.423 37.27 16.649 8.292 2.742 19.216 3.824 20.251 12.276 2.351 19.205-35.03 34.11-47.303 42.771-8.739 6.168-11.307 9.11-15.976 17.226-4.78 8.311-13.587 15.359-20.992 23.023-4.896 5.068-8.358 8.869-12.029 14.926-2.224 3.67-1.525 5.221-4.927 8.084-4.421 3.722-13.779 5.296-19.342 7.744-4.845 2.133-13.583 9.148-18.654 9.076-6.501-0.094-11.736-5.939-19.052-5.854" fill="#33a02c"/>
<path d="m459.59 196.9c-1.318-11.345-3.305-22.625-4.198-34.018-0.217-2.768-2.413-14.061-0.407-16.083 2.4-2.42 2.661 0.232 5.303-0.606 2.256-0.715 8.034 1.267 11.16 0.709 11.788-2.103 20.843-12.14 31.159-17.499-4.203 28.067-3.069 55.833-4.845 84.498-1.06 17.096-1.121 34.063 1.251 50.974 2.246 16.009-4.339 17.974-13.071 29.573-11.38 15.119-25.653 24.527-41.411 35.431-22.883 15.833-44.187 35.424-64.792 54.067-7.459 6.749-16.02 16.71-24.527 6.857-5.776-6.689-4.508-18.688-4.449-26.906 0.095-13.272 8.53-18.378 20.706-24.055 8.45-3.939 17.728-6.131 25.298-11.171 4.893-3.257 8.031-6.093 13.75-8.526 12.96-5.516 26.299-8.807 35.294-20.275 11.446-14.594 20.404-36.391 17.727-54.725-2.336-15.987-2.084-32.203-3.948-48.245z" fill="#99d47f"/>
<path d="m530.76 135.92c1.773 0.534 8.801 3.164 9.952 3.219 4.779 0.231 7.784-2.292 12.944-4.215-9.376-9.501-32.807-10.999-45.902-11.25-20.449-0.387-36.027 16.368-54.187 23.179 9.279 1.311 16.434 2.625 25.561-1.774 9.184-4.426 14.086-11.987 24.645-13.99 9.198-1.745 18.318 2.223 26.987 4.831z" fill="#33a02c"/>
<path d="m356.76 404.9c-1.783-2.201-6.348-10.154-2.604-13.067 3.612-2.81 12.029 2.49 15.632 4.067 10.205 4.47 20.063 10.031 30.968 11.945 15.717 2.758 38.459-0.836 50.259-12.89 6.442-6.581 9.237-16.063 16.944-22.781 8.711-7.591 14.667-13.001 20.781-22.222 13.276-20.023 34.401-24.175 51.015-40.051 12.403-11.854 2.788-29.131 0.06-43.053-2.545-12.992-0.051-27.035 1.699-40.2 1.945-14.624 4.982-29.729 4.023-44.53-0.471-7.273-2.881-14.607-3.555-21.996-0.608-6.667 1.179-14.094-0.071-19.945 3.009-2.571 6.759-3.278 10.675-4.904 4.126 10.269 1.052 27.962 1.193 38.577 0.175 13.09 2.012 27.86-0.245 42.021-2.769 17.368-6.339 33.388-4.751 51.274 1.052 11.855 7.799 24.109 6.122 36.145-1.89 13.567-16.934 22.131-27.146 29.836-16.873 12.73-28.776 22.654-41.805 38.826-5.761 7.15-12.534 12.531-19.195 18.725-6.165 5.734-7.94 15.51-13.729 20.494-5.454 4.695-17.446 7.193-24.271 10.48-11.246 5.416-12.562 3.3-23.977-0.752-8.394-2.979-17.484-3.246-25.801-6.248-8.734-3.154-16.726-9.609-25.223-13.752" fill="#33a02c" stroke="#000"/>
<linearGradient id="y" x1="419.64" x2="416.44" y1="150.7" y2="427" gradientTransform="translate(2.4547e-6)" gradientUnits="userSpaceOnUse">
	<stop stop-color="#CCEBB9" offset="0"/>
	<stop stop-color="#CAEAB7" offset=".4129"/>
	<stop stop-color="#C3E7B1" offset=".5616"/>
	<stop stop-color="#B8E1A6" offset=".6676"/>
	<stop stop-color="#A7D997" offset=".7534"/>
	<stop stop-color="#91CE82" offset=".8268"/>
	<stop stop-color="#75C169" offset=".8918"/>
	<stop stop-color="#56B14C" offset=".9492"/>
	<stop stop-color="#33A02C" offset="1"/>
</linearGradient>
<path d="m405.21 320.12c-17.773 6.418-42.023 13.34-51.604 31.349-6.029 11.333-6.639 45.938 5.411 53.233 3.981 2.412 59.999 24.291 60.593 19.042 0.849-7.497 3.645-14.61-2.853-17.622-1.191-0.553-8.708 1.084-10.996 0.747-12.809-1.884-38.863-7.571-43.67-21.41-3.689-10.623-0.201-28.417 8.189-36.006 12.648-11.438 30.767-14.104 45.48-21.808 14.082-7.373 31.572-11.943 42.714-23.908 13.028-13.99 11.855-34.197 14.286-51.866 1.536-11.167-0.817-19.835-2.974-30.728-2.866-14.48-3.144-27.474-4.026-42.299-0.613-10.305-3.99-21.021-0.1-30.746-3.816 0.15-8.263-0.208-11.749-1.075-1.606 19.313 6.752 39.155 5.797 58.872-0.991 20.485 2.582 43.028 0.048 63.267-3.793 30.312-28.839 41.677-54.546 50.958z" fill="url(#y)" stroke="#000"/>
<path d="m415.76 407.9c1.462 5.168 1.124 10.674 1 16" fill="none" stroke="#000"/>
<path d="m445.76 398.9c0.91 4.041 1.822 7.895 2 12" fill="none" stroke="#000"/>
<path d="m426.76 407.9v13" fill="none" stroke="#000"/>
<path d="m408.76 407.9c1.951 5.818 0.209 11.17 0 17" fill="none" stroke="#000"/>
<path d="m448.76 395.9c1.917 4.488 3.037 9.138 3 14" fill="none" stroke="#000"/>
<path d="m429.76 406.9c1.046 3.564 1.38 7.287 1 11" fill="none" stroke="#000"/>
<path d="m512.76 339.9c-1.531-3.33-1.134-6.848 1-10" fill="none" stroke="#000"/>
<path d="m442.76 328.9c21.313-13.451 44.151-26.979 55.223-50.9 6.193 3.475 13.712 3.338 20.777 5.123 8.152 2.061 15.436 6.439 23 8.777" fill="none" stroke="#000"/>
<path d="m502.76 129.9c-6.802 24.806-5 52.375-5 78" fill="none" stroke="#000"/>
<path d="m256.42 152.9c-0.663-7.899 15.878-11.589 21.333-12" fill="none" stroke="#000"/>
<path d="m356.33 108.07c-4.234 4.899-10.178 6.849-16.666 6.165 1.138-0.246 3.259-2.115 4.01-3.899-3.433-0.503-6.689 0.986-9.931 0.583-0.964-0.12-6.813-0.698-6.948-1.516-0.252-1.507 5.434-3.171 6.522-3.561 4.746-1.699 8.842-1.849 13.776-1.636 1.873 0.081 3.518-0.278 5.356 0.399 0.52 0.19 4.683 2.538 3.881 3.465z" fill="#33a02c"/>
<path d="m339.09 104.23c-4.913 1.323-13.3 1.678-15.232 7.203 5.94 6.332 23.598 3.584 29.899 0.13" fill="none" stroke="#000"/>
<path d="m336.55 110.94c0.851 0.673 3.114 0.955 4.217 0.579 4.192-1.429-2.734-3.88-4.217-0.579z" fill="#ff0" stroke="#000" stroke-width=".25"/>
<path d="m247.14 361.54c4.009-5.085 4.797-11.29 2.897-17.531-0.027 1.164-1.46 3.6-3.07 4.676-1.144-3.275-0.298-6.755-1.309-9.861-0.3-0.924-1.975-6.557-2.804-6.535-1.527 0.037-2.085 5.936-2.261 7.078-0.77 4.982-0.142 9.032 1.002 13.838 0.435 1.823 0.394 3.506 1.405 5.184 0.287 0.471 3.381 4.115 4.14 3.151z" fill="#33a02c"/>
<path d="m240.11 345.35c0.369-5.074-0.872-13.377 4.188-16.32 7.343 4.633 7.987 22.491 5.791 29.333" fill="none" stroke="#000"/>
<path d="m246.21 341.58c0.822 0.708 1.527 2.877 1.367 4.031-0.608 4.387-4.327-1.949-1.367-4.031z" fill="#ff0" stroke="#000" stroke-width=".25"/>
<line x1="193.2" x2="274.8" y1="67.396" y2="147.9" fill="none" stroke="#000"/>
<line x1="193.2" x2="333.74" y1="67.396" y2="110.92" fill="none" stroke="#000"/>
<path d="m354.76 307.4c-0.761-7.046 4.781-10.283 10.498-11.5 6.182-1.314 14.575-7.82 18.123 1 6.869 17.081-29.983 22.648-28.621 9.5" fill="#d6efba" stroke="#addfb6"/>
<path d="m275.76 327.4c-9.058-0.012-14.427-10.508-16.123-17.988-1.742-7.685 1.671-14.567 2.71-21.947 6.806 1.877 16.001 11.525 18.8 18.047 3.85 8.97-0.323 17.328-1.488 25.84-1.496-0.609-3.021-1.46-4.398-2.451" fill="#2a8b73" opacity=".3"/>
<g transform="translate(-6.4696 -3.3244e-6)">
	<path d="m245.23 222.4c-3.76-11.234-6.6-24.81-0.139-35.721 3.976-6.714 14.39-13.331 22.064-14.202 1.949 11.6 4.418 23.731-0.79 35.058-4.177 9.083-13.474 11.307-21.636 15.365" fill="#298224"/>
	<path d="m248.72 193.18c-0.44 0.744-0.742 1.6-0.827 2.689-0.154 1.986 1.031 3.798 1.334 5.528 0.429 2.452 1.623 4.031 3.699 5.463 1.119 0.772 3.096 2.125 4.429 1.661 0.409-0.142 0.9-0.906 1.209-1.119 0.565-0.391 1.374-0.511 1.958-0.867 1.593-0.971 1.911-2.877 3.078-3.772 0.584-0.447 1.504-0.162 2.093-0.691 0.408-0.368 0.747-1.627 0.871-2.166 0.641-2.789 3.351-21.792-0.313-21.983-0.598 2.099-0.449 4.482-0.229 6.511 0.251 2.296-1.925 3.876-2.301 6.15-0.928 5.614-2.304 11.667-5.303 16.587 1.055-2.308 1.968-4.867 2.433-7.403 0.25-1.358 0.035-1.89-0.254-3.046-0.252-1.006-0.717-2.054 0.126-2.995 0.673-0.752 1.381-0.515 1.957-1.322 0.92-1.29 0.969-3.815 1.416-5.341 0.648-2.209 2.793-8.033 1.13-10.02-1.621 1.586-2.936 5.716-3.176 8.012-0.168 1.602 0.808 2.435-0.657 3.687-0.513 0.438-0.806 0.083-1.375 0.784-0.318 0.391-0.427 0.916-0.625 1.38-1.164 2.73-1.724 5.812-2.621 8.667-0.384 1.22-0.521 3.272-1.421 4.49-1.13 1.528-1.848 0.777-1.592-0.99 0.254-1.753 1.636-2.681 2.425-4.051 0.94-1.63 1.372-3.79 2.001-5.579 0.56-1.595 2.012-4.043 1.837-5.509-0.072-0.603-1.06-0.847-0.421-1.87 0.404-0.646 1.014-0.94 1.582-0.347 0.579-1.584 1.154-3.197 1.669-4.815 0.505-1.588 1.706-3.243 1.97-4.834-2.734 3.156-7.57 8.453-7.558 12.995 4e-3 1.503 0.518 1.229-0.575 2.287-0.869 0.841-1.191 0.656-1.796 2.047-1.025 2.361-2.43 4.95-2.972 7.449 0.972-5.313 3.651-10.385 5.98-15.283 1.768-3.718 4.193-7.666 6.968-10.65-0.623 0.67-2.622 1.063-3.487 1.569-1.039 0.608-2.126 1.314-2.998 2.15-1.596 1.531-2.529 3.347-3.195 5.431-0.645 2.015-1.557 3.731-3.004 5.298-1.303 1.412-2.632 2.414-3.465 3.818z" fill="#9ed44a" stroke="#33a02c" stroke-width=".5"/>
</g>
<circle transform="translate(-6.4696 -3.3244e-6)" cx="323.67" cy="326.83" r="5" fill="#0a50a1"/>
<circle transform="translate(-6.4696 -3.3244e-6)" cx="281.73" cy="175.4" r="5" fill="#4f9dc8"/>
<circle transform="translate(-6.4696 -3.3244e-6)" cx="285.65" cy="299.47" r="5" fill="#076dae"/>
<circle transform="translate(-6.4696 -3.3244e-6)" cx="435.44" cy="186.8" r="5" fill="#0a50a1"/>
<g transform="translate(-6.4696 -3.3244e-6)">
	<circle cx="267.56" cy="288.84" r="5" fill="#0a50a1"/>
		<radialGradient id="x" cx="608.43" cy="278.95" r="3.918" gradientTransform="matrix(.2977 .9547 -1.0588 .3302 388.42 -385.08)" gradientUnits="userSpaceOnUse">
		<stop stop-color="#34B3D1" offset="0"/>
		<stop stop-color="#CCEBB9" offset=".9213"/>
	</radialGradient>
	<path d="m271.9 286.76c-1.317-5.451-9.888-2.439-8.261 2.579 1.533 4.739 10.328 2.085 8.261-2.579" fill="url(#x)" stroke="#0d3795" stroke-width=".6324"/>
</g>
<path d="m412.42 270.23c-1.194 1.317-1.665 2.785-1.024 4.322 1.562-0.555 1.888-2.236 1.024-3.656" fill="#ffffbf"/>
<path d="m396.09 292.9c-1.316 0.396-2.319 1.151-2.67 2.397 1.472 0.117 3.065-0.886 3.337-2.397" fill="#ffffbf"/>
<path d="m351.76 288.57c5e-3 1.552 0.818 2.923 2.299 3.312 0.243-1.338-0.383-2.505-1.632-2.979" fill="#ffffbf"/>
<path d="m382.76 300.57c-1.611-0.72-2.981-0.186-3.633 1.267 1.35 0.754 2.573 0.219 2.966-1.267" fill="#ffffbf"/>
<path d="m369.76 303.57c0.57 1.509 1.7 1.644 2.707 0.665-0.347-0.938-0.855-0.858-1.707-0.998" fill="#ffffbf"/>
<circle transform="translate(-6.4696 -3.3244e-6)" cx="414.06" cy="185.73" r="1.833" fill="#ffff7f"/>
<ellipse transform="translate(-6.4696 -3.3244e-6)" cx="427.89" cy="171.23" rx="1.667" ry="2" fill="#ffff7f"/>
<ellipse transform="translate(-6.4696 -3.3244e-6)" cx="251.93" cy="232.4" rx="1" ry="1.75" fill="#999"/>
<ellipse transform="translate(-6.4696 -3.3244e-6)" cx="330.25" cy="287.31" rx="1" ry="1.75" fill="#666"/>
<ellipse transform="translate(-6.4696 -3.3244e-6)" cx="335.73" cy="249.4" rx="1" ry="1.75" fill="#666"/>
<ellipse transform="translate(-6.4696 -3.3244e-6)" cx="393.36" cy="177.69" rx="10.667" ry="9.667" fill="#999"/>
<ellipse transform="translate(-6.4696 -3.3244e-6)" cx="257.55" cy="240.5" rx="12.003" ry="10.766" fill="#999"/>
<g transform="translate(-6.4696 -3.3244e-6)">
	<linearGradient id="w" x1="268.24" x2="405.03" y1="219.98" y2="219.98" gradientTransform="translate(6.4696 3.3244e-6)" gradientUnits="userSpaceOnUse">
		<stop stop-color="#9ABAD5" offset=".0056"/>
		<stop stop-color="#94B4D2" offset=".1885"/>
		<stop stop-color="#84A3C9" offset=".4343"/>
		<stop stop-color="#6987BB" offset=".7159"/>
		<stop stop-color="#4763A8" offset="1"/>
	</linearGradient>
	<path d="m279.86 212.73c-7.063 12.678-12.248 30.873-11.557 45.627 0.515 10.981 6.167 17.964 14.072 25.104 13.271 11.987 33.126 10.999 49.859 11.157 11.102 0.104 30.137-0.142 35.299-12.447 2.061-4.913-0.232-8.944-0.453-13.929-0.324-7.307 2.205-15.691 4.252-22.655 2.41-8.202 5.906-15.093 12.719-20.415 5.764-4.502 12.594-7.578 17.324-13.331 15.9-19.337-24.346-45.57-38.348-51.716-11.268-4.946-23.422-17.6-36.818-14.224-7.439 1.876-13.155 8.856-18.684 13.87-6.952 6.304-13.8 11.572-18.132 20.491-4.199 8.646-3.876 18.392-6.784 27.536 0-1e-3 -2.749 4.931-2.749 4.932z" fill="url(#w)" stroke="#4573b3" stroke-width=".8738"/>
	<linearGradient id="v" x1="287.39" x2="353.67" y1="197.65" y2="242.69" gradientTransform="translate(6.4696 3.3244e-6)" gradientUnits="userSpaceOnUse">
		<stop stop-color="#4573B3" offset="0"/>
		<stop stop-color="#19338F" offset="1"/>
	</linearGradient>
	<path d="m330.85 247.16c0.467-2.058 1.166-4.067 1.945-5.954 3.865-9.36 11.137-16.906 14.887-26.31 2.145-5.379 1.078-11.189 1.32-16.873 0.434-10.155 4.201-22.572 0.164-32.315-3.764-9.086-14.889-18.601-25.107-13.79-9.851 4.637-17.07 14.671-23.874 22.812-5.124 6.131-7.771 12.312-9.185 20-3.485 18.952-16.09 35.471-17.44 54.818-0.474 6.798 0.939 12.344 5.882 17.121 5.728 5.535 10.334 12.429 17.595 16.595 11.281 6.473 32.168-2.683 35.844-15.199 1.523-5.19-1.289-7.898-2.271-12.482-0.594-2.772-0.389-5.641 0.24-8.423z" fill="url(#v)" stroke="#6aaacf" stroke-linejoin="round" stroke-width="3"/>
</g>
<g transform="translate(-6.4696 -3.3244e-6)">
	<path d="m278.98 272.87c3.074-10.426-6.432-13.692-14.019-16.306-5.393-1.857-13.818-7.691-15.974 1.185-2.053 8.46 4.205 15.193 11.949 16.393 5.699 0.883 14.201 3.822 18.517-1.434" fill="#d6efba" stroke="#addfb6"/>
	<path d="m276.21 263.16c-0.17-0.172-3.269-2.568-3.218-1.155-0.063-1.77-1.834-2.295-3.212-2.886-0.846-0.362-2.153-1.144-3.056-1.216-0.793-0.065-0.962 0.628-1.626 0.598-0.656-0.029-0.503-0.659-0.844-1.133-1.708-2.37-7.148-3.543-9.128-1.063-0.68 0.852-1.81 5.022 0.222 3.125 0.834-0.78 1.61-2.631 2.725-2.896 0.671 1.681-1.001 3.79-1.439 5.368-0.425 1.528 0.688 3.174 1.965 3.973 1.722 1.075 4.084 2.129 6.124 1.559 0.384-0.107 1.348-0.777 1.653-0.752 1.136 0.09 1.174 1.73 1.794 2.405 0.773 0.843 2.348 1.032 3.415 1.485 2.229 0.949 6.007 2.639 6.771-0.92 0.56-2.613-0.434-4.755-2.146-6.492z" fill="#ffffbf"/>
	<path d="m277.42 270.67c1.1-2.332-0.396-4.672-1.816-6.414-2.87-3.518-1.663 0.376-3.615 1.855-0.81-1.166 0.71-2.488 0.362-3.719-0.322-1.138-1.757-1.559-2.675-2.012-1.07-0.529-2.482-1.754-3.689-0.937-1.234 0.834-0.812 3.843-2.853 3.923-0.261-1.488 1.127-2.707 0.839-4.067-0.284-1.341-2.532-1.792-3.521-2.432-1.265-0.819-2.687-2.481-4.131-0.873-0.534 0.595-1.508 2.574-1.56 3.388-0.101 1.58 0.561 0.582 1.125-0.228 0.285-0.409 1.445-2.261 1.841-2.255 0.564 9e-3 1.134 1.637 1.347 2.157 0.485 1.183 0.264 1.812-0.254 2.972-0.613 1.377-1.166 2.273 0.225 3.28 1 0.724 2.249 0.893 3.396 1.265 1.176 0.381 2.268 1.172 3.411 0.442 1.272-0.81 1.237-2.968 2.837-3.406 0.033 1.632-1.718 3.599-0.358 4.915 0.516 0.499 4.197 1.641 5.027 1.21 0.525-0.272 0.485-1.733 1.204-1.876 1.217-0.242 0.188 1.162 0.276 1.625 0.274 1.461 1.405 1.539 2.653 0.82" fill="#addfb6"/>
</g>
<g transform="translate(-6.4696 -3.3244e-6)">
	<linearGradient id="u" x1="356.39" x2="377.52" y1="225.93" y2="220.97" gradientTransform="translate(6.4696 3.3244e-6)" gradientUnits="userSpaceOnUse">
		<stop stop-color="#CCEBB9" offset="0"/>
		<stop stop-color="#33A02C" offset=".4888"/>
		<stop stop-color="#CCEBB9" offset="1"/>
	</linearGradient>
	<path d="m353.23 209.9c7.357-1.273 15.355 8.606 17.907 14.668 1.618 3.842 2.966 8.663 2.417 12.658-0.32 2.333-4.651 8.842-2.673 10.031 1.55 0.931 3.737-11.428 5.274-12.771 3.019-2.637 1.991 7.741 2.132 10.038 2.363-1.043 2.639-9.045 2.607-11.625-0.058-4.572-1.801-8.556-3.913-12.485-1.743-3.244-3.548-6.73-6.411-9.179-5.375-4.597-13.475-9.218-20.622-8.617 0.019 2.284 8.905 3.486 10.503 4.082 5.468 2.036 10.854 6.75 13.692 11.817 1.607 2.869 5.779 10.877 1.503 13.334-3.271-3.234-2.803-8.545-5.27-12.264-2.149-3.241-5.953-7.131-9.36-9.024-1.367-0.76-8.813-4.754-9.12-1.328" fill="url(#u)"/>
	<path d="m352.23 206.9c-0.664 1.295-0.534 2.387 0.601 2.956 0.692-1.374 0.183-1.666-0.268-1.956" fill="#298224" stroke="#ffffbf" stroke-width=".25"/>
	<path d="m350.23 201.9c-0.371 1.177-0.554 1.845 0.675 2.375 1.026-1.07 0.797-2.53-0.675-2.375" fill="#298224" stroke="#ffffbf" stroke-width=".25"/>
</g>
<path d="m377.54 218.22c0.022-3e-3 0.044-7e-3 0.065-0.011 0.777-0.151 1.373-0.438 2.224-0.31 0.636 0.096 1.624 0.315 2.248 0 1.111-0.56 0.107-1.142-0.685-1.13-0.7 0.011-1.403 0.183-2.104 0.128-0.692-0.054-1.125-0.502-1.742-0.643-0.86-0.195-1.944 0.561-1.36 1.494 0.277 0.44 0.871 0.548 1.354 0.472z" fill="#fede77"/>
<path d="m404.91 221.77c1.43-0.062 1.845-3.012-0.013-2.106-0.862 0.42-1.399 2.167 0.013 2.106z" fill="#fede77"/>
<g transform="translate(-6.4696 -3.3244e-6)">
			<linearGradient id="t" x1="339.02" x2="353.32" y1="151.44" y2="148.08" gradientTransform="matrix(.1769 -.9842 1.1633 .209 154.74 514.62)" gradientUnits="userSpaceOnUse">
			<stop stop-color="#FCC0A7" offset="0"/>
			<stop stop-color="#FC4128" offset=".4888"/>
			<stop stop-color="#FCC0A7" offset=".9213"/>
		</linearGradient>
		<path d="m375.76 212.1c5.806 0.783 16.288 2.015 21.268-0.066 6.889-2.877-2.125-6.099-3.818-9.561-1.178-2.406 0.783-3.416-3.421-4.68-4.682-1.407-10.771-0.093-15.534-0.177-4.475-0.08-5.38-0.243-5.952 2.945-0.419 2.33-0.429 4.469 0.963 6.797 1.293 2.169 3.648 4.115 6.864 4.807" fill="url(#t)"/>
			<linearGradient id="s" x1="393.39" x2="407.54" y1="165.14" y2="161.82" gradientTransform="matrix(.8317 -.8365 .7092 .7051 -65.668 408.47)" gradientUnits="userSpaceOnUse">
			<stop stop-color="#FCC0A7" offset="0"/>
			<stop stop-color="#FC4128" offset=".4888"/>
			<stop stop-color="#FCC0A7" offset=".9213"/>
		</linearGradient>
		<path d="m387.25 184.66c-3.456-3.768-8.964-4.622-13.196-7.188-0.888-0.538-2.459-1.97-3.568-1.845-3.616 0.406-4.3 7.098-4.683 9.745-0.27 1.842-0.696 4.143-0.417 6.009 0.315 2.119 0.769 1.91 2.405 2.777 4.37 2.314 9.938 5.443 14.998 5.622 7.768 0.275 2.712-6.087 3.851-9.737 0.79-2.535 3.142-2.622 0.61-5.383z" fill="url(#s)"/>
		<path d="m369.76 205.86c-0.314-1.006-0.394-2.136-0.189-3.365 0.316-1.901 2.486-4.166 1.358-6.091-3.317 0.36-2.875 2.711-2.689 4.935 0.396 4.765 1.408 10.66 7.189 11.665 1.392 0.241 4.514-0.388 2.74-2.22-1.003-1.04-1.85 0.047-2.918-0.221-2.735-0.688-4.756-2.359-5.491-4.703z" fill="red" stroke="#ffffbf" stroke-width=".125"/>
			<linearGradient id="r" x1="357.07" x2="394.03" y1="170.53" y2="161.85" gradientTransform="matrix(.422 -.9066 .9066 .422 86.361 460.6)" gradientUnits="userSpaceOnUse">
			<stop stop-color="#FCC0A7" offset="0"/>
			<stop stop-color="#FC4128" offset=".4888"/>
			<stop stop-color="#FCC0A7" offset=".9213"/>
		</linearGradient>
		<path d="m372.59 207c7.045 2.527 19.925 6.644 28.443 2.028 11.78-6.382 2.649-15.258 3.501-23.967 0.592-6.052 4.118-8.342-0.355-11.89-4.983-3.952-14.288-1.341-20.571-2.042-5.899-0.658-6.962-1.146-10.594 6.652-2.655 5.701-4.589 10.974-4.829 16.855-0.224 5.484 1.173 10.522 4.839 12.564" fill="url(#r)"/>
			<linearGradient id="q" x1="361.59" x2="386.61" y1="167.02" y2="161.14" gradientTransform="matrix(.422 -.9066 .9066 .422 86.361 460.6)" gradientUnits="userSpaceOnUse">
			<stop stop-color="#FCC0A7" offset="0"/>
			<stop stop-color="#FC4128" offset=".4888"/>
			<stop stop-color="#FCC0A7" offset=".9213"/>
		</linearGradient>
		<path d="m382.93 177.54c-4.528-0.622-6.876 0.988-8.262 5.389-0.45 1.426-1.313 9.021-4.081 7.728-1.577 2.819 1.762 7.224 1.931 10.216 8.261 0.589 15.458 7.496 24.083 3.291 8.47-4.129 1.571-10.486 1.984-16.487 0.288-4.169 2.813-5.669-0.548-8.23-3.743-2.853-10.491-1.273-15.107-1.907z" fill="url(#q)"/>
		<path d="m380.1 200.25c-1.103-0.644-2.311 0.01-3.551-0.98-2.204-1.766-3.455-5.958-3.456-8.537 1e-3 -3.155 1.421-6.435 3.182-9.038 1.017-1.503 4.69-3.145 3.071-5.409-1.806 0.054-3.992 3.89-4.787 5.357-1.264 2.334-2.076 4.728-2.31 7.368-0.22 2.485 0.476 5.239 1.242 7.577 0.723 2.204 1.943 5.38 4.555 5.815 0.696 0.116 2.047 0.169 2.609-0.366 0.63-0.599 0.059-1.428-0.555-1.787z" fill="red" stroke="#ffffbf" stroke-width=".1778"/>
			<linearGradient id="p" x1="367.73" x2="382.03" y1="158.81" y2="155.45" gradientTransform="matrix(.422 -.9066 1.0716 .4989 70.952 454.2)" gradientUnits="userSpaceOnUse">
			<stop stop-color="#FCC0A7" offset="0"/>
			<stop stop-color="#FC4128" offset=".4888"/>
			<stop stop-color="#FCC0A7" offset=".9213"/>
		</linearGradient>
		<path d="m381.62 197.32c5.414 2.24 15.234 6.103 20.581 5.361 7.394-1.024-0.499-6.439-1.254-10.219-0.526-2.625 1.628-3.104-2.115-5.396-4.167-2.555-10.39-2.837-14.975-4.134-4.306-1.219-5.14-1.606-6.506 1.33-1.001 2.146-1.555 4.211-0.804 6.817 0.698 2.428 2.479 4.91 5.413 6.4" fill="url(#p)"/>
		<path d="m378.17 189.61c-0.062-1.054 0.14-2.168 0.637-3.31 0.771-1.767 3.43-3.431 2.808-5.575-3.306-0.462-3.45 1.926-3.815 4.128-0.779 4.717-1.239 10.681 4.12 13.068 1.29 0.575 4.471 0.728 3.2-1.482-0.718-1.252-1.806-0.407-2.775-0.928-2.486-1.334-4.036-3.449-4.175-5.901z" fill="red" stroke="#ffffbf" stroke-width=".125"/>
		<path d="m377.89 205.4c-1.483-0.864-3.188 0.144-4.843-1.209-1.291-1.056-2.897-3.624-1.965-5.298 0.576 0.752 1.117 1.699 2.063 1.759-0.089-1.545-1.17-3.075-1.575-4.646-0.418-1.637-0.264-3.485-0.893-5.008-1.195 2.399 1.18 5.039-0.219 7.366-1.9-0.518-1.77-4.572-1.706-6.236 0.179-4.53 2.319-9.317 4.894-13.154 1.489-2.215 6.648-4.777 4.54-7.937-6.074 0.436-5.274 11.082-9.884 12.331-1.471-2.636 2.927-5.163 2.401-7.704-4.563 0.058-8.247 15.645-4.896 17.829 1.727-2.406 0.3-6.074 2.153-8.576 1.088 1.194-0.108 3.434-0.276 4.786-0.287 2.311 0.066 4.773 0.456 7.049 0.49 2.872 1.225 5.833 2.641 8.402 1.006 1.824 2.72 3.438 4.904 3.514 0.924 0.033 2.42-0.185 2.999-0.974 0.623-0.848-5e-3 -1.836-0.794-2.294z" fill="red" stroke="#ffffbf" stroke-width=".25"/>
			<path d="m418.77 232.61c0.363-1.899 4.109-3.783 3.301-5.967-0.513-1.383-2.147-0.564-2.731 0.246-1.048 1.454-1.265 3.312-2.19 4.829-0.765 1.25-1.371 1.029-2.562 0.449-1.027-0.5-2.005-0.953-2.938-1.606-1.598-1.119-3.058-2.769-2.314-4.813 0.386-1.062 0.956-1.638 2.107-1.657 0.982-0.016 2.177 0.305 2.863 1.048 0.5 0.541 0.807 1.218 0.809 1.96 1e-3 0.619-0.438 1.294-0.269 1.901 0.184 0.665 2.278 1.823 2.581 0.893 0.104-0.322-0.073-0.981 0.012-1.388 0.133-0.634 0.476-1.177 0.879-1.674 0.369-0.455 0.38-0.355 0.876-0.451 0.532-0.103 2.753-1.041 1.796-1.803-0.552-0.439-1.324 0.115-1.904 0.19-0.864 0.112-0.954-0.216-1.224-0.877-0.6-1.47-2.27-2.216-3.776-2.335-4.758-0.374-10.166 4.209-6.176 8.845 1.262 1.465 3.184 2.131 4.908 2.809 0.617 0.243 1.428 0.425 1.883 0.945 0.283 0.323 0.258 1.951 0.318 1.957 1.919 0.201 1.992-2.524 3.669-2.668 0.693-0.06-0.06 2.832-0.085 3.14-0.077 0.965-0.026 1.993 0.146 2.945 0.368 2.022 1.541 3.607 3.688 3.857 2.755 0.321 3.689-1.714 5.481-3.225 1.213-1.022 2.511-0.866 3.421 0.496 0.517 0.773 0.69 1.676 0.439 2.575-0.17 0.608-0.755 1.123-0.768 1.733 2.672 0.339 4.101-3.415 3.478-5.428-1.171-3.784-5.737-3.193-8.009-0.946-0.977 0.965-2.403 1.869-3.732 0.872-1.156-0.868-1.199-3.143-0.27-4.118 1.437-1.507 2.668-2.901 3.26-5.036 0.584-2.11-1.023-5.246 0.945-6.831 1.76-1.417 5.208-0.319 6.16 1.583 0.586 1.169 0.37 2.39-0.691 3.148-0.822 0.587-2.116 0.549-2.381 1.767-0.312 1.436 1.426 1.549 2.401 1.172 1.874-0.723 2.814-2.442 3.396-4.231 0.375-1.151 0.632-3.009-0.122-4.039-1.384-1.893-3.954-1.857-6.028-1.982-3.607-0.216-4.336-2.336-4.168-5.581 0.104-2.021 3.409-5.671 5.587-3.923 0.899 0.723 0.583 1.736 0.396 2.667-0.167 0.83-0.08 1.999 1.021 1.254 1.551-1.049 1.347-3.787 0.188-4.939-2.803-2.791-7.531 0.175-8.924 3.022-0.856 1.749-0.783 3.216-0.161 5.016 0.509 1.473 0.716 3.14 0.331 4.648-0.299 1.172-0.608 2.42-0.5 3.65 0.091 1.031 0.238 2.018-0.017 3.019-0.233 0.917-0.934 1.869-1.633 2.487-1.05 0.927-1.54 0.276-2.767 0.395z" fill="#822407"/>
			<linearGradient id="o" x1="405.39" x2="426.42" y1="226.88" y2="203.79" gradientTransform="translate(6.4696 3.3244e-6)" gradientUnits="userSpaceOnUse">
				<stop stop-color="#D43B00" offset=".0169"/>
				<stop stop-color="#ff0" offset=".9213"/>
			</linearGradient>
			<path d="m430.94 213c-0.354-0.625-0.747-1.212-1.165-1.741-3.571-4.522-11.583-1.969-15.148 1.407-1.289 1.221-2.646 2.374-3.435 3.966-0.748 1.509-2.64 1.407-3.818 0.449-0.512-0.417-0.566-0.938-0.96-1.384-0.183-0.208-0.605-0.351-0.846-0.491-0.966-0.563-1.931-0.725-3.011-1.138-1.254-0.481-2.354-1.257-3.198-2.305-0.824-1.024-1.135-2.392-2.045-3.327-1.435-1.474-4.161-2.729-6.251-2.37-1.069 0.184-1.926 1.475-2.147 2.491-0.242 1.112 0.109 2.263 0.665 3.226 0.843 1.458 1.665 3.565 1.385 5.285 0.334-0.225 0.665-0.796 0.854-1.175 0.172-0.344 0.655-1.126 0.61-1.503-0.066-0.571-0.805-1.259-0.973-1.875-0.068-0.25-0.022-0.407-0.094-0.622-0.152-0.455-0.452-0.705-0.423-1.24 0.103-1.87 2.221-1.875 3.289-0.853 1.236 1.184 1.911 2.827 2.866 4.221 1.417 2.068 4.319 3.632 6.436 4.899 0.705 0.422 2.208 0.737 2.521 1.516 0.43 1.07-0.619 1.768-1.546 1.709-1.213-0.076-2.217-1.168-3.131-1.759-0.987-0.639-2.298-1.321-3.463-1.372-0.953-0.042-3.222 0.417-3.161 1.743 0.068 1.523 1.815 0.417 2.627 0.16 1.588-0.505 2.581 0.338 3.902 1.194 1.269 0.822 2.609 2.174 4.257 1.809 0.55-0.122 1.184-0.473 1.598-0.875 0.685-0.667 0.716-2.037 1.865-1.109 0.936 0.755 1.44 2.051 0.943 3.206-0.276 0.646-0.905 0.933-1.262 1.5 0.301-0.479 3.796 2.766 4.556 1.976 0.25-0.261 0.1-1.121 0.1-1.481 0-0.665 2e-3 -1.33 0-1.995-2e-3 -0.901 0.217-1.786 0.254-2.685 0.029-0.724-0.036-1.444 0.045-2.168 0.173-1.539 0.782-3.004 1.723-4.231 0.785-1.024 1.787-1.965 2.77-2.783 1.002-0.833 2.524-1.148 3.742-1.517 1.416-0.429 2.866-0.433 4.186 0.328 1.86 1.074 2.883 3.026 3.315 5.071 0.363 1.715 1.063 4.31-0.647 5.526-0.683 0.485-1.407 0.715-2.013 1.338-0.798 0.822-1.458 1.845-1.738 2.963-0.237 0.947 0.084 1.813-0.342 2.712-0.487 1.025-1.744 1.835-2.878 1.818-1.391-0.021-2.812-1.451-4.106 0.281-1.904 2.546 2.064 1.913 3.229 1.976 1.175 0.064 1.886-0.177 2.873-0.633 2.181-1.006 2.446 1.482 4.512 2.102 1.224 0.367 3.171 0.513 3.999-0.754 0.816-1.248 0.18-2.3-1.106-2.255-1.252 0.043-2.442 0.827-3.371-0.494-0.777-1.105-0.365-2.572 0.063-3.743 0.6-1.642 1.677-2.584 2.791-3.854 1.233-1.407 1.934-3.429 1.965-5.277 0.032-1.96-0.65-4.069-1.663-5.863z" fill="url(#o)"/>
				<linearGradient id="n" x1="379.81" x2="391.04" y1="209.49" y2="281.57" gradientTransform="translate(6.4696 3.3244e-6)" gradientUnits="userSpaceOnUse">
					<stop stop-color="#D43B00" offset="0"/>
					<stop stop-color="#D74300" offset=".1641"/>
					<stop stop-color="#E15900" offset=".4202"/>
					<stop stop-color="#F07D00" offset=".7344"/>
					<stop stop-color="#FFA100" offset="1"/>
				</linearGradient>
				<path d="m439.73 270.95c-1.682 3.663-4.565 7.132-8.861 10.228-14.341 10.332-31.82 15.424-48.747 19.247-6.68 1.509-13.282 4.017-19.559 6.662-3.315 1.397-7.277 4.134-11.011 2.993-2.813-0.859-4.454-3.871-5.949-6.181-5.54-8.558-8.419-16.283-8.419-26.741 0-29.521 24.362-53.452 54.415-53.452 2.638 0 3.264-1.122 4.871-3.085 1.456-1.777 2.53-2.515 4.9-3.003 0.998-0.206 2.346-0.116 3.23-0.684 0.619-0.397 0.708-1.29 0.832-1.983 0.306-1.701-0.157-3.527-1.752-4.415-0.847-0.472-1.985-0.369-2.369-1.15-0.257-0.521-0.301-0.903-0.94-1.113-0.698-0.23-1.594 0.026-2.237 0.326-3.842 1.795-2.532 7.235-3.979 10.352-0.385 0.829-1.138 1.309-1.684 2.017s-0.691 1.351-1.478 1.826c-0.738 0.447-1.479 0.897-2.266 1.253-1.587 0.716-3.612 0.835-5.31 1.163-1.034 0.199-2.266 0.543-3.339 0.36-0.422-0.072-1.821-0.35-1.983-0.853-0.189-0.588 0.988-1.667 1.22-2.233 0.359-0.877 0.465-1.835 0.557-2.771 0.121-1.239 0.059-2.835 0.86-3.86 0.787-1.005 1.921-1.775 3.032-2.372 1.719-0.923 3.312-0.764 5.167-0.768 0.837-2e-3 2.391 0.154 2.49 1.253 0.076 0.842-1.054 1.547-1.776 1.63-1.132 0.129-2.196-0.465-3.318-0.451-1.229 0.015-2.138 0.838-2.556 1.949-0.237 0.631-0.193 1.183-0.228 1.828-0.039 0.767-0.35 1.493-0.252 2.281 0.267 2.161 3.108 0.105 4.118-0.411 1.257-0.642 2.656-1.911 3.273-3.189 0.399-0.826 0.791-1.767 1.062-2.639 0.634-2.043 1.627-3.989 2.902-5.721 2.6-3.529 9.28-5.183 12.753-1.976 1.503 1.388 1.69 3.271 3.974 3.79 1.499 0.341 3.326 5e-3 4.253-1.284 0.798-1.11 0.875-2.61-4e-3 -3.618-0.684-0.784-2.027-1.34-1.253-2.534 1.286-1.983 3.684 0.402 4.131 1.806 0.773 2.426 0.584 4.997-1.377 6.721-1.563 1.374-2.961 1.14-4.845 1.375-1.051 0.131-3.127 0.895-3.141 2.231 0 0.023 4.337-0.093 4.677-0.074 2.143 0.12 4.991 0.691 6.533 2.337 0.564 0.603 0.734 1.449 1.294 2.09 0.781 0.895 1.688 1.673 2.415 2.616 0.791 1.026 1.589 2.124 2.679 2.855 0.515 0.345 1.077 0.393 1.594 0.65 0.627 0.313 1.223 1.05 1.577 1.638 1.932 3.203-0.617 6.85-2.787 9.174-1.116-1.133-1.448-1.56-0.22-2.615 0.952-0.818 1.904-1.569 2.188-2.906 0.44-2.069-1.671-4.342-3.729-4.43-2.182-0.094-5.196 2.019-5.637 4.164-0.745 0.168-3.183-2.038-3.212-2.726-0.028-0.653 1.765-2.331 2.108-2.965 1.271-2.353 1.906-4.389-0.75-5.881-2.521-1.417-4.563-1.301-7.372-1.16-2.468 0.124-4.593 0.649-7.007 0.969-1.769 0.235-3.227 1.037-4.497 2.282-0.741 0.726-1.627 1.614-0.641 2.352 1.228 0.918 2.876 0.492 4.283 0.716 0.668 0.106 1.158 0.453 1.771 0.64 0.905 0.275 1.971 0.46 2.908 0.656 0.045-1.037-1.387-3.472-2.07-4.22-0.295-0.323-1.563-0.974-1.423-1.518 0.35-1.363 3.119 2.681 3.36 3.083 0.611 1.017 1.231 2.569 2.273 3.226 1.043 0.657 2.306 0.719 3.37 1.278 1.118 0.587-0.517 1.667 0.235 2.278 0.577-0.393 0.534-1.286 0.833-1.866 0.987 0.049 1.932 0.914 2.776 1.344 1.782 0.908 3.516 1.914 5.188 3.01 3.267 2.142 6.307 4.632 9.033 7.429 9.055 9.281 13.441 20.754 8.843 30.77z" fill="url(#n)"/>
				<linearGradient id="m" x1="354.06" x2="377.42" y1="265.4" y2="235.37" gradientTransform="translate(6.4696 3.3244e-6)" gradientUnits="userSpaceOnUse">
					<stop stop-color="#FFA100" offset=".0056"/>
					<stop stop-color="#D43B00" offset=".4944"/>
					<stop stop-color="#D74300" offset=".5774"/>
					<stop stop-color="#E15900" offset=".7068"/>
					<stop stop-color="#F07D00" offset=".8657"/>
					<stop stop-color="#FFA100" offset="1"/>
				</linearGradient>
				<path d="m375.89 230.23c3.12-0.457 8.678 3.785 10.251 6.417 2.906 4.864-4.397 8.684-7.594 11.9-4.085 4.11-8.4 7.926-11.771 12.705-1.725 2.444-2.494 4.908-5.628 5.385-4.948 0.752-9.318-3.854-13.868-3.798-0.648-5.923 6.882-15.218 10.7-19.209 5.603-5.854 11.209-9.375 18.242-13.066" fill="url(#m)"/>
						<circle cx="387.23" cy="270.2" r="35.667" fill="#fbd30d"/>
						<path d="m360.89 273.5c-1.725-0.04-3.71 0.797-5.231 1.455 0.301 1.755 1.234 5.654 2.83 6.539-0.15-0.761 0.229-1.803 0.117-2.581 4.081 0.603 4.05 9.704 0.684 4.315-0.274 1.406 0.376 2.633 1.609 3.342 0.181-0.148 0.235-0.465 0.373-0.57 1.43-1.098 3.573 6.489 4.86 7.286 1.563 0.968 3.833 0.48 2.139-1.507-0.162-0.234 0.374-0.249 0.245-0.493-2.489-1.769 1.641-4.409 3.924-2.684-2.116 2.651 2.239 4.831 2.499 1.644 1.733 6e-3 3.365 1.5 2 3.016 0.516 0.996 0.704 2.037 0.551 3.152 0.215-1.561-3.169-1.385-3.291 0.613-0.181 2.963 4.254 2.146 2.717 0.576 0.756-0.227 1.815-0.109 2.584-0.018 2.058 0.248 2.478 1.307 5.074 0.33 1.971-0.742 3.819-2.105 5.682-3.086 4.755-2.502 8.162-8.143 10.534-13.146-5.817-5.914-21.075-11.55-29.232-9.519" fill="#ffffbf"/>
							<path d="m377.56 238.53c-6.32 4.338-14.104 5.833-18.165 13.335-3.518 6.5-1.989 15.867-3.736 23.199 7.987 7.352 22.115 9.934 32.454 9.317 4.016-0.239 10.28-0.739 13.314-3.815 3.616-3.664 0.987-5.777 0.804-9.372-0.499-9.735 4.34-18.398-4.005-26.032-7.018-6.419-13.591-5.977-22-5.299" fill="#fdbf6f" stroke="#ffffbf"/>
							<radialGradient id="l" cx="380.76" cy="254.5" r="14.086" gradientTransform="translate(6.4696 3.3244e-6)" gradientUnits="userSpaceOnUse">
								<stop stop-color="#FE9F34" offset="0"/>
								<stop stop-color="#FF5700" offset="1"/>
							</radialGradient>
							<path d="m371.56 269.86c3.489 1.344 12.551 6.012 16.181 2.848 3.009-2.623 0.894-10.58-0.98-13.514-8.966-14.039-18.101 9.116-15.201 10.666" fill="url(#l)"/>
							<path d="m358.89 273.2c3.812-1.332 7.528-2.155 11.333-3.334" fill="none" stroke="#fe9f34"/>
							<path d="m380.89 254.53c-0.866-3.609-0.014-8.016 0-12" fill="none" stroke="#fe9f34"/>
							<path d="m388.89 271.86c3.263 1.834 7.205 1.813 10 4" fill="none" stroke="#fe9f34"/>
					<path d="m408.89 260.53c-0.502 1.466-0.508 2.73 0.415 3.948 1.42-0.91 1.766-2.987 0.251-3.948" fill="#ffffbf"/>
					<path d="m409.89 249.2c-0.408 1.531 0.299 2.883 1.591 3.625 0.714-1.25 0.336-2.514-0.925-3.291" fill="#ffffbf"/>
					<path d="m417.56 257.2c-0.203 1.641 0.217 2.94 1.616 3.297 0.253-1.219-0.084-2.383-0.949-3.297" fill="#ffffbf"/>
					<path d="m411.89 277.53c-1.471 0.684-2.392 2.154-1.599 3.628 1.387-0.293 1.826-1.822 1.599-3.295" fill="#ffffbf"/>
					<path d="m416.56 283.53c-1.516 0.618-2.378 2.042-2.288 3.646 1.358-0.14 2.281-1.272 2.622-2.646" fill="#ffffbf"/>
					<path d="m399.56 240.86c1.179 4.133 5.497 0.136 0.334-0.667" fill="#ffffbf"/>
					<path d="m353.56 266.53c-0.721 1.19-0.755 2.413-0.084 3.599 0.455-0.982 0.595-2.145 0.418-3.266" fill="#ffffbf"/>
					<path d="m412.56 267.2c-0.81 1.401-0.956 2.893-0.259 4.307 0.91-0.811 1.153-2.301 0.593-3.307" fill="#ffffbf"/>
					<path d="m380.23 235.53c-1.18 0.163-2.136 0.661-2.646 1.616 1.523 0.189 3.017-0.639 4.218-1.549-0.413-0.111-0.794-0.058-1.238-0.067" fill="#ffffbf"/>
					<linearGradient id="k" x1="442.59" x2="395.16" y1="231.86" y2="272.08" gradientTransform="translate(6.4696 3.3244e-6)" gradientUnits="userSpaceOnUse">
						<stop stop-color="#D43B00" offset="0"/>
						<stop stop-color="#D74300" offset=".1641"/>
						<stop stop-color="#E15900" offset=".4202"/>
						<stop stop-color="#F07D00" offset=".7344"/>
						<stop stop-color="#FFA100" offset="1"/>
					</linearGradient>
					<path d="m410.18 228.95c-1.356-0.411-7.929-1.973-8.15 0.696-0.094 1.128 9.44 5.944 10.69 7.009 3.512 2.99 6.241 6.311 8.333 10.401 0.847 1.654 2.152 2.835 0.981 4.583-0.547 0.817-4.577 1.341-4.591 1.408-0.406 1.968 1.738 4.422 1.95 6.607 0.217 2.242-0.094 4.51-0.333 6.667-0.524 4.727-1.498 9.392-3.583 13.741-2.64 5.506-5.676 8.037-11.668 9.5-1.234 0.301-4.054 0.223-5.016 1.01-1.479 1.212-0.426 0.482-0.474 2.082-0.092 3.07 1.546 2.793-1.461 4.528-2.286 1.319-6.518 1.864-9.157 2.315-6.789 1.158-13.879 0.58-20.224-2.188-1.31-0.571-2.593-1.235-3.842-1.995-5.02-3.057-9.959-6.732-11.168-12.734-0.534-2.647 0.043-5.496-0.18-8.188-0.102-1.233-1.019-9.701-2.287-10.014-3.001-0.738-2.936 4.594-4.283 6.323-1.458-2.603-1.313-7.284-1.375-10.331-0.256-0.166-1.63-0.809-1.94-0.908-5.834 3.111-4.676 15.234-4.676 20.589 0 8.425 2.576 15.216 5.241 23.011 1.848 5.406 7.708 14.576 13.485 16.35 4.787 1.469 10.914 0.643 15.59-0.748 14.882-4.425 29.188-10.449 44.035-15.01 11.225-3.447 21.844-7.564 28.574-17.742 6.234-9.426-0.489-22.979-4.925-31.923-2.819-5.687-6.317-11.092-10.831-15.586-1.109-1.105-2.3-2.373-3.63-3.21-0.618-0.389-1.544-0.372-1.209-1.305 0.365-1.018 2.947-1.399 3.82-1.738 1.517-0.587 2.861-1.244 4.118-2.28 2.877-2.373 4.184-6.498 1.53-9.594-0.74-0.864-1.899-2.26-3.152-2.384-1.177-0.117-2.099 1.022-1.131 1.915 0.702 0.648 2.054 0.182 2.878 0.838 0.954 0.76 1.121 2.004 1.128 3.128 0.015 2.423-1.691 4.643-3.753 5.787-2.375 1.317-6.975 3.056-9.731 2.434-2.927-0.661-1.954-5.527-1.671-7.621 0.298-2.19 1.176-5.066 2.772-6.661 2.811-2.807 2.751 2.559 1.618 4.189 0.485 0.457 1.049 0.951 1.515 1.462 0.48 0.527 1.066 1.535 1.749 1.824 1.032 0.437 1.598-1.038 2.257-1.859 0.665-0.828 1.035-1.392 0.873-2.425-0.354-2.254-0.369-5.584-2.468-7.027-0.624-0.429-1.401-0.535-2.056-0.928-0.919-0.552-1.638-1.415-2.168-2.34-0.463-0.81-0.872-1.49-1.536-2.134-0.307-0.297-0.51-0.612-0.774-0.946-0.052-0.064-0.869-0.776-0.867-0.682 0.015 0.865 0.055 1.714-0.302 2.549 0.923 0.294 1.738 1.828 1.815 2.737 0.092 1.082-0.359 2.2-0.867 3.131-0.864 1.589-2.252 2.601-2.919 4.367-1.086 2.875-1.636 5.982-2.572 8.92-0.356 1.117-0.734 2.47-1.392 3.449-0.39 0.581-1.742 1.434-1.612 0.131 0.06-0.602 0.615-1.149 0.675-1.732 0.086-0.803-1.05-1.265-1.653-1.448z" fill="url(#k)"/>
					<linearGradient id="j" x1="354.89" x2="377.21" y1="295.7" y2="295.7" gradientTransform="translate(6.4696 3.3244e-6)" gradientUnits="userSpaceOnUse">
						<stop stop-color="#FF5900" offset="0"/>
						<stop stop-color="#FF6900" offset=".193"/>
						<stop stop-color="#FF9200" offset=".7246"/>
						<stop stop-color="#FFA100" offset="1"/>
					</linearGradient>
					<path d="m355.23 288.57c-1.681 2.125 4.813 10.879 7.001 12.275 2.797 1.784 7.536 1.958 10.745 1.983 3.758 0.031 4.514-0.059 4.163-3.835-0.698-7.507-2.866-6.31-8.899-7.415-4.052-0.741-9.635-3.798-13.343-2.676" fill="url(#j)"/>
					<linearGradient id="i" x1="380.27" x2="398.23" y1="296.7" y2="296.7" gradientTransform="translate(6.4696 3.3244e-6)" gradientUnits="userSpaceOnUse">
						<stop stop-color="#FFA100" offset=".0056"/>
						<stop stop-color="#FF8C00" offset=".2008"/>
						<stop stop-color="#FF7000" offset=".5167"/>
						<stop stop-color="#FF5F00" offset=".7938"/>
						<stop stop-color="#FF5900" offset="1"/>
					</linearGradient>
					<path d="m381.56 292.9c-1.118 1.73-2.024 7.42-0.414 8.766 3.021 2.525 13.145-2.932 15.412-5.117 2.462-2.373 2.336-4.57-1.315-5.313-3.841-0.782-10.707 1.617-14.349 2.999" fill="url(#i)"/>
					<linearGradient id="h" x1="343.79" x2="389.97" y1="299.7" y2="299.7" gradientTransform="translate(6.4696 3.3244e-6)" gradientUnits="userSpaceOnUse">
						<stop stop-color="#FF5900" offset="0"/>
						<stop stop-color="#FF6100" offset=".2103"/>
						<stop stop-color="#f70" offset=".5384"/>
						<stop stop-color="#FF9B00" offset=".9413"/>
						<stop stop-color="#FFA100" offset="1"/>
					</linearGradient>
					<path d="m352.23 306.23c-3.293-2.107-12.629-17.022-6.259-19.593 4.931-1.989 6.628 7.226 11.592 8.259 2.652 0.553 5.546 0.51 8.073 1.262 2.702 0.802 4.723 1.785 7.594 2.072 3.338 0.334 15.342-1.015 16.69 2.65 0.346 0.938-1.128 6.6-1.758 7.265-1.821 1.92-9.089 3.173-11.61 4.01-9.163 3.042-17.229-2.515-24.989-6.592" fill="url(#h)"/>
					<linearGradient id="g" x1="337.11" x2="365.89" y1="295.84" y2="295.84" gradientTransform="translate(6.4696 3.3244e-6)" gradientUnits="userSpaceOnUse">
						<stop stop-color="#FF5900" offset="0"/>
						<stop stop-color="#FF6100" offset=".2103"/>
						<stop stop-color="#f70" offset=".5384"/>
						<stop stop-color="#FF9B00" offset=".9413"/>
						<stop stop-color="#FFA100" offset="1"/>
					</linearGradient>
					<path d="m348.97 295.82c-2.248-1.115-3.743-3.167-4.817-5.373-1.055-2.166-2.541-4.184-3.303-6.487-0.635-1.92-1.496-3.746-1.937-5.712-0.159-0.71-0.082-2.697-0.833-3.024-0.235-0.103-0.845 2.619-0.91 3.029-0.184 1.148 0.068 1.948 0.35 3.009 0.359 1.354 0.377 2.866 0.6 4.254 0.571 3.548 0.939 7.149 1.952 10.609 0.675 2.307 1.662 4.502 2.34 6.803 1.354 4.598 3.813 8.642 7.986 11.165 3.024 1.826 7.661 3.176 11.1 1.815 0.983-0.39 1.832-1.05 2.33-1.997 1.8-3.424 2.227-7.423 2.017-11.29-5.893-0.258-11.774-4.269-16.875-6.801z" fill="url(#g)"/>
					<linearGradient id="f" x1="372.18" x2="403.16" y1="309.41" y2="309.41" gradientTransform="translate(6.4696 3.3244e-6)" gradientUnits="userSpaceOnUse">
						<stop stop-color="#FFA100" offset=".0056"/>
						<stop stop-color="#FF8C00" offset=".2008"/>
						<stop stop-color="#FF7000" offset=".5167"/>
						<stop stop-color="#FF5F00" offset=".7938"/>
						<stop stop-color="#FF5900" offset="1"/>
					</linearGradient>
					<path d="m373.56 303.57c-0.662 3.378-2.882 11.042 0.245 12.333 7.062 2.914 19.678-3.449 25.347-7.275 1.241-0.839 5.103-3.102 3.708-5.397-1.571-2.585-12.19 0.401-14.633 0.915-4.625 0.975-9.986-1.524-14.333 0.092" fill="url(#f)"/>
				<path d="m384.83 226.22c1.117-0.244 2.039-0.802 3.144-1.096 1.132-0.301 2.312-0.414 3.478-0.481 1.284-0.074 2.581-0.049 3.853 0.136 0.604 0.088 1.201 0.212 1.789 0.378 1.521 0.431 3.023 0.903 4.476 1.533 0.998 0.433 2.187 0.689 2.769 1.62-0.354-0.564-2.148-0.588-2.687-0.471-1.417 0.307-1.443 1.724-1.31 2.914 0.507-1.358 0.294-2.667 2.045-2.673 1.662-6e-3 3.01 1.219 4.56 1.697 1.13 0.348 3.009-8e-3 2.06-1.531-1.069-1.716-2.548-1.659-3.937-2.682-1.438-1.059-0.351-2.867-1.094-4.271-0.689-1.304-1.99-2.195-3.26-2.872-1.156-0.617-2.648-1.409-2.279-3.029 0.182-0.798 0.572-1.619 1.077-2.262 0.665-0.846 1.423-0.895 2.394-1.187 2.106-0.634 4.564-0.582 6.441 0.671 1.141 0.761 2.267 2.224 2.749 3.527 0.486 1.315 0.058 1.845-0.506 2.972-0.87 1.742-0.389 5.236-0.063 7.125 0.155 0.897 1.912 3.06 2.604 1.652 0.233-0.474-0.152-1.249-0.229-1.652-0.122-0.654-0.064-1.105-0.024-1.75 0.103-1.676 0.024-3.358 0.071-5.002 0.044-1.521 1.243-2.756 2.176-3.845 0.654-0.763 2.206-2.025 2.105-3.105-0.722 0.105-0.866-0.317-1.449 0.012-0.584 0.329-0.701 1.044-1.406 1.316-1.348 0.519-3.111-0.728-3.913-1.726-0.975-1.215-1.752-1.714-3.372-2.086-3.059-0.702-6.41-0.084-9.055 1.59-1.666 1.055-2.866 2.619-4.505 3.622-1.252 0.766-2.531 0.638-3.905 0.794-1.509 0.171-2.994 0.314-4.499 0.013-0.906-0.181-3.158-0.063-2.848 1.417 0.183 0.874 1.849 1.083 2.529 0.994 0.663-0.087 1.228-0.297 1.931-0.262 0.742 0.037 1.545 0.306 2.283 0.247 0.469-0.038 0.991-0.434 1.428-0.401 1.298 0.098 1.74 1.785 1.919 2.823 0.146 0.853 0.087 2.103-1.026 2.129-1.331 0.032-2.071-1.605-3.175-2.106-1.204-0.547-1.819 0.329-2.396 1.291-0.681 1.138-1.846 1.595-2.937 2.289-1.703 1.083 1.066 1.93 1.994 1.728z" fill="#942900"/>
				<path d="m374.95 292.01c0.3 0.154 0.52 0.333 0.627 0.542 1.508 2.896-4.628 0.924-5.681 0.758-2.605-0.412-13.185-4.373-14.283-2.141-1.386 2.816 17.479 6.348 18.868 6.405 6.088 0.253 19.405 2.227 23.788-3.663-2.304-3.197-9.604 0.628-13.04 0.657-1.957 0.017-5.221 0.046-3.339-2.343 3.039-3.85 12.197-1.459 16.471-2.404 4.873-1.079 11.939-1.729 14.582-6.601 1.136-2.095 1.304-4.276 2.334-6.352 1.281-2.583 2.144-4.382 2.723-7.241 0.943-4.658 1.294-11.984-1.347-16.073 2.897-3.024 3.819 11.216 3.716 13.417-0.292 6.175-2.288 12.498-5.223 17.902-2.703 4.976-6.508 5.521-11.909 6.029-1.396 0.131-5.971 0.639-4.256 2.914 2.114 2.803 16.768-4.049 18.638-5.688 4.256-3.728 4.007-11.075 4.724-16.326 1.049-7.684-0.253-16.608-3.226-23.666-3.274-7.777-6.851-12.038-14.782-15.259-1.608-0.653-2.728-0.671-4.033-1.998-9e-3 -8e-3 1.083-0.331 1.196-0.345 0.538-0.066 1.087-0.022 1.619 0.066 1.244 0.206 2.438 0.696 3.566 1.246 2.063 1.006 4.189 2.86 6.152 0.548 0.229-0.27 0.375-0.535 0.498-0.833 0.105-0.257 0.136-0.697 0.329-0.917 0.284-0.324 0.804-0.375 1.03 1e-3 0.389 0.645-0.412 1.509-0.795 1.94-0.911 1.026-2.337 2.81-0.616 3.742 1.514 0.821 2.803 2.038 4.069 3.209 4.844 4.481 6.396 14.427 7.352 20.681 1.061 6.939 1.544 14.494-0.571 21.289-2.299 7.381-7.993 10.193-14.994 12.66-3.925 1.385-8.096 2.395-11.808 4.333 4.512 0.713 9.758-4.437 13.856-2.524-1.458 5.736-11.518 7.734-16.278 8.758-3.104 0.668-6.347 1.238-9.534 1.232-1.011-2e-3 -12.527-1.316-11.852-2.066 1.826-2.023 18.007 0.611 15.982-3.607-5.129-0.301-9.964-0.941-14.943-1.409-3.909-0.368-7.671-1.547-11.535-2.175-3.102-0.505-6.09-0.157-8.765-2.064-2.029-1.447-3.232-3.857-4.877-5.432 0.425 3e-3 0.752-0.072 1.231-0.025-0.101-2.284-6.011-1.885-6.011-1.885 0.666 4.689 5.883 8.557 9.708 10.663 2.285 1.259 4.403 1.701 6.877 2.288 0.571 0.136 6.929 2.664 6.469 2.891-4.32 2.135-11.772-0.963-15.565-3.331-4.321-2.698-7.583-7.591-9.985-11.946-2.841-5.15-5.256-10.925-4.878-16.943 0.693-11.043 5.593-21.619 12.98-29.764 5.799-6.394 10.742-10.942 18.725-13.991 1.779-0.68 3.47-1.426 5.238-2.127 0.761-0.302 1.421-0.397 2.244-0.396 0.766 1e-3 1.945-2e-3 2.544-0.555 0.678-0.627 1.069-1.996 1.27-2.863 0.144-0.622 0.197-1.528 0.853-1.823 0.286-0.129 0.431 3.488 0.59 3.785 0.668 1.242 2.753 0.872 3.848 0.547 0.592-0.175 0.699-0.484 0.886-1.077 0.029-0.093 0.479-1.616 0.72-1.403 0.946 0.834-0.45 3.466-1.076 4.179-0.954 1.086-2.987 1.5-4.317 1.812-3.234 0.759-6.714 0.795-9.837 1.985-4.386 1.671-16.932 7.532-16.616 13.284 4.081 0.621 8.355-6.378 11.258-8.543 2.281-1.703 8.922-5.451 11.398-3.073-2.238 2.353-6.221 2.723-9.04 4.317-3.811 2.155-7.747 5.737-10.692 8.95-2.688 2.933-5.115 6.228-6.733 9.807-1.019 2.254-1.823 8.783-4.265 9.215-3.315-5.4 7.166-12.125 4.623-16.573-8.58 1.4-8.866 14.418-10.966 20.537-1.238 3.607-3.144 16.024 2.581 17.228 4.876 1.024-0.532-12.836 0.51-15.481 0.767-1.944 4.709-6.396 5.208-2.354 0.343 2.781-2.353 5.048-2.339 7.941 0.016 3.105 1.773 5.771 3.844 7.957 4.357 4.598 11.085 7.566 17.304 8.438 1.168 0.166 5.31 0.266 6.978 1.127z" fill="#fede77"/>
		<path d="m389.03 217.52c0.633-0.027 2.489 0.079 2.586 0.352-0.574-1.625-4.305-0.968-5.66-1.131-0.983-0.119-2.422-1.03-3.188 0.085-0.657 0.959 0.356 1.233 1.238 1.194 0.793-0.036 1.488-0.217 2.365-0.128 1.065 0.108 1.56-0.164 2.484-0.356 0.036-8e-3 0.096-0.013 0.175-0.016z" fill="#fede77"/>
		<path d="m411.75 219.9c-2.236-1.017-0.931 3.479-0.875 4.375 0.053 0.866 8e-3 2.484 0.841 3.034 0.948 0.626 0.292-2.476 0.284-3.128-0.013-1.114 0.795-3.832-0.5-4.406" fill="#fede77"/>
	<linearGradient id="e" x1="381.49" x2="387.09" y1="208.13" y2="208.13" gradientTransform="translate(6.4696 3.3244e-6)" gradientUnits="userSpaceOnUse">
		<stop stop-color="#FCC0A7" offset="0"/>
		<stop stop-color="#FCBDA4" offset=".2456"/>
		<stop stop-color="#FCB49B" offset=".4183"/>
		<stop stop-color="#FCA48B" offset=".5685"/>
		<stop stop-color="#FC8E75" offset=".706"/>
		<stop stop-color="#FC7259" offset=".8347"/>
		<stop stop-color="#FC5037" offset=".9554"/>
		<stop stop-color="#FC4128" offset="1"/>
	</linearGradient>
	<path d="m386.47 206.52c-2.429-2.779-6.843 0.88-4.133 3.543 2.114 2.076 6.342-1.016 4.133-3.543z" fill="url(#e)"/>
	<path d="m382.75 209.55c1.711 1.275 2.564-2.446 1.278-3.258-1.664-1.05-2.483 2.36-1.278 3.258z" fill="red" stroke="#ffffbf" stroke-width=".25"/>
</g>
<g transform="translate(-6.4696 -3.3244e-6)" fill="#231f20">
		<circle cx="344.27" cy="309.5" r=".917"/>
		<circle cx="347.21" cy="312.19" r=".917"/>
		<circle cx="347.71" cy="306.31" r=".917"/>
		<circle cx="341.23" cy="301.2" r=".917"/>
		<circle cx="342.87" cy="304.83" r=".916"/>
		<circle cx="345.64" cy="299.62" r=".917"/>
		<circle cx="352.83" cy="308.06" r=".917"/>
		<circle cx="355.77" cy="310.75" r=".917"/>
		<circle cx="356.27" cy="304.88" r=".917"/>
		<circle cx="338.83" cy="291.31" r=".917"/>
		<circle cx="340.71" cy="295.31" r=".917"/>
		<circle cx="341.21" cy="289.44" r=".917"/>
	<circle cx="337.71" cy="285.38" r=".917"/>
</g>
<g transform="translate(-6.4696 -3.3244e-6)" fill="#231f20">
			<circle cx="369.58" cy="305.94" r=".917"/>
			<circle cx="347.83" cy="289.19" r=".917"/>
			<circle cx="364.52" cy="298.44" r=".917"/>
			<circle cx="344.19" cy="281.9" r=".917"/>
			<path d="m361.32 300.24c-0.34 0.172-1.311-0.176-1.628-0.167-0.149-0.686 0.631-1.154 1.22-0.901 0.305 0.131 0.773 0.685 0.477 1.018-0.019 0.02-0.043 0.037-0.069 0.05z"/>
			<path d="m351.27 295.66c-0.033 0.123-0.04 0.231 0.036 0.312-0.277-0.29-1.484-0.604-1.406-1.124 0.053-0.354 0.89-0.344 1.106-0.251 0.655 0.281 0.358 0.727 0.264 1.063z"/>
			<circle cx="374.33" cy="300.25" r=".917"/>
			<circle cx="367.52" cy="301.12" r=".917"/>
			<circle cx="355.83" cy="295.81" r=".917"/>
			<path d="m337.27 269.79c-0.015 0.352 0.033 0.828-0.334 0.961-0.509 0.185-1.022-0.517-1.022-0.938 0-0.506 0.41-0.916 0.917-0.916 0.677 0 0.515 0.264 0.45 0.76-6e-3 0.041-9e-3 0.086-0.011 0.133z"/>
			<circle cx="336.58" cy="277.31" r=".917"/>
			<circle cx="335.46" cy="264.69" r=".917"/>
		<circle cx="341.58" cy="277.56" r=".917"/>
	<circle cx="335.08" cy="273.12" r=".917"/>
</g>
<g transform="translate(-6.4696 -3.3244e-6)" fill="#231f20">
		<circle cx="348.42" cy="275.06" r=".917"/>
		<path d="m358.28 241.61c-0.382 0.655-1.617 1.302-1.617 0.123 0-0.506 0.41-0.916 0.917-0.916 0.851 0 0.931 0.398 0.7 0.793z"/>
		<circle cx="343.58" cy="264.56" r=".917"/>
		<circle cx="341.81" cy="270.61" r=".917"/>
		<path d="m338.82 261.92c-0.093 0.338-0.256 0.631-0.439 0.683-0.678 0.19-1.038-0.874-0.854-1.305 0.16-0.372 0.8-0.785 1.2-0.482 0.215 0.163 0.211 0.669 0.093 1.104z"/>
		<circle cx="345.83" cy="254.73" r=".917"/>
		<circle cx="340.75" cy="247.73" r=".917"/>
		<path d="m347.89 262.93c0.054 0.474-0.415 0.887-0.89 0.887-0.507 0-0.917-0.41-0.917-0.916 0-0.925 0.752-0.915 1.015-0.098 0.04 0.124 0.684 0.124 0.792 0.127z"/>
		<path d="m355.01 254.88c-0.247 0.404-0.533 0.811-0.696 1.251-0.105 0.287-0.713-0.92-0.713-1.095 0-0.505 0.41-0.916 0.92-0.916 0.323 0 0.544 0.15 0.666 0.456-0.055 0.101-0.114 0.202-0.177 0.304z"/>
		<circle cx="340.08" cy="252.06" r=".917"/>
		<circle cx="338.62" cy="257.23" r=".917"/>
		<circle cx="347.88" cy="250.85" r=".917"/>
	<path d="m345.02 247.91c-0.09 0.385-0.477 0.711-0.704 1.056-2.729-1.239 1.067-2.62 0.704-1.056z"/>
</g>
<g transform="translate(-6.4696 -3.3244e-6)" fill="#231f20">
		<circle cx="354.02" cy="233.83" r=".917"/>
		<circle cx="344.29" cy="243.1" r=".917"/>
		<path d="m360.86 231.13c-0.478 0.352-0.941 0.591-1.265 1.099-0.029-0.375-0.139-0.979 0.168-1.278 0.421-0.412 1.035 0.229 1.207 0.095-0.037 0.029-0.074 0.057-0.11 0.084z"/>
		<circle cx="378.23" cy="233.53" r=".917"/>
		<path d="m352.79 238.15c-0.254 0.299-0.645 0.574-0.854 0.738-0.336-0.294-0.705-0.743-0.49-1.214 0.185-0.403 1.024-0.725 1.412-0.383 0.294 0.258 0.177 0.57-0.068 0.859z"/>
		<circle cx="379.48" cy="229.79" r=".917"/>
		<circle cx="367.92" cy="225.9" r=".917"/>
		<path d="m365.15 228.36c0.123 0.039 0.234 0.082 0.32 0.122-0.269 0.253-1.824 0.73-1.876 1.076 0.062-0.407 0.192-0.939 0.546-1.197 0.238-0.175 0.67-0.107 1.01-1e-3z"/>
		<path d="m375.07 224.28c0.156 0.155 0.092 0.396-0.208 0.608-0.387 0.273-0.966 0.201-1.351 0.5 0.103-0.572 0.288-1.268 1.008-1.268 0.269 0 0.453 0.063 0.551 0.16z"/>
		<circle cx="347.67" cy="241.48" r=".917"/>
		<circle cx="360.38" cy="236.98" r=".917"/>
		<circle cx="367.96" cy="230.6" r=".917"/>
	<circle cx="383.38" cy="229.38" r=".917"/>
</g>
<g transform="translate(-6.4696 -3.3244e-6)" fill="#231f20">
		<circle cx="437.99" cy="242.26" r=".916"/>
		<circle cx="435.96" cy="238.83" r=".917"/>
		<circle cx="433.77" cy="244.31" r=".917"/>
		<circle cx="438.48" cy="251.09" r=".916"/>
		<circle cx="437.97" cy="247.14" r=".917"/>
		<circle cx="433.8" cy="251.31" r=".916"/>
		<circle cx="429.38" cy="241.14" r=".917"/>
		<circle cx="427.35" cy="237.71" r=".916"/>
		<circle cx="425.16" cy="243.19" r=".916"/>
		<circle cx="437.89" cy="261.24" r=".917"/>
		<circle cx="437.26" cy="256.87" r=".917"/>
		<circle cx="435.07" cy="262.34" r=".917"/>
	<circle cx="437.23" cy="267.25" r=".917"/>
</g>
<g transform="translate(-6.4696 -3.3244e-6)" fill="#231f20">
		<circle cx="430.12" cy="279.49" r=".917"/>
		<circle cx="426.06" cy="278.93" r=".917"/>
		<circle cx="427.22" cy="262.64" r=".917"/>
		<circle cx="428.33" cy="272.31" r=".917"/>
		<circle cx="431.58" cy="257.73" r=".916"/>
		<circle cx="430.49" cy="267.95" r=".917"/>
		<circle cx="431.68" cy="274.81" r=".917"/>
		<circle cx="434.62" cy="277.49" r=".917"/>
		<circle cx="435.12" cy="271.62" r=".917"/>
		<circle cx="442.58" cy="260.9" r=".917"/>
		<circle cx="441.06" cy="265.14" r=".917"/>
		<circle cx="441.42" cy="257.15" r=".917"/>
	<circle cx="426.56" cy="257.29" r=".917"/>
</g>
<path d="m209.76 187.9c-3.03-4.667 1.485-15.043 4.728-19.054 5.927-7.328 16.488-9.65 25.244-11.443 4.406-0.902 8.902-1.746 13.36-2.344 6.007-0.807 10.458 1.023 16.421 1.224 0.02-2.707 4.104-4.754 5.695-1.503 0.062 0.126 12.35-10.511 14.396-11.835 7.288-4.713 15.757-7.189 22.933-12.045 17.305-11.709 24.298-8.637 44.02-4.254 17.9 3.978 35.778 4.594 54.023 7.032 13.777 1.841 33.993 3.074 37.251 20.203 1.998 10.505-3.089 21.729-1.29 33.071 1.793 11.308 4.551 22.584 6.215 33.945 4.318 29.476 4.867 60.085-20.055 80.003-16.02 12.804-41.976 16.072-61.719 19.242-15.221 2.444-22.462 9.822-34.171 19.707-10.889 9.191-19.395 14.529-34.829 8.852-11.442-4.209-23.03-11.45-33.948-17.023-10.153-5.182-23.808-9.658-32.493-17.047-5.851-4.978-5.91-4.408-6.777-13.531-0.498-5.232-0.352-10.206-1.781-15.199-1.068-3.732-1.806-5.955-4.673-8.365-2.243-1.885-5.061-2.271-6.675-5.023-2.758-4.705-2.33-13.143-2.889-18.513-0.536-5.136-1.435-9.669-0.013-14.6 5.146-17.847 3.868-35.272-3.973-52.498m220.94-6.393c7.135-35.502-34.351-31.925-57.945-38.188-13.484-3.579-29.738-9.008-43.419-4.987-14.841 4.362-26.452 15.429-40.73 20.788-15.92 5.975-33.808 9.59-50.604 12.245-23.482 3.712-13.682 16.464-11.246 34.199 2.233 16.265-1.504 34.23 1.948 50 1.818 8.306 7.161 14.313 10.801 22 5.938 12.542 7.095 25.82 17.682 35.763 11.144 10.461 25.624 14.407 39.958 18.242 14.973 4.004 18.615 0.313 30.834-8.727 13.81-10.217 28.781-10.736 44.396-15.098 16.886-4.715 34.397-11.205 48.433-21.934 14.675-11.217 22.916-30.451 20.131-48.567-1.919-12.488-7.606-24.556-9.983-36.986-1.175-6.13-1.542-12.349-0.256-18.75z" fill="#33a02c" stroke="#000"/>
<path d="m243.76 307.9c-2.062-8.321-2.838-17.195-6.249-24.75-1.326-2.938-3.563-7.23-6.115-9.262-1.864-1.479-5.374-1.209-7.036-2.586-3.724-3.082-3.156-9.904-3.6-14.274-0.615-6.062-2.462-12.265-0.124-17.763 0.858-2.018 2.756-3.061 3.149-5.339 0.839-4.847-0.673-11.81-0.892-16.803-0.254-5.776-0.729-11.555-1.915-17.224-1.826-8.722-8.432-21.352 0.483-28.02 10.177-7.611 22.536-7.65 34.569-8.984 3.684-0.409 7.19-1.208 11-2.889 2.777-1.225 7.333-4.788 1.059-4.709-1.648 0.021 10.846-3.48 6.661 0.825-6e-3 7e-3 -0.013 0.014-0.02 0.021 1.877 2.385 7.237-0.858 9.582-1.437 9.294-2.297 16.375-6.06 24.647-10.757 16.948-9.625 29.941-15.388 50.004-9.853 13.175 3.635 22.77 5.871 35.727 7.007 18.996 1.667 42.561 4.538 41.122 28.574-0.713 11.906-2.354 18.3 0.977 30.246 9.557 34.273 17.85 74.259-19.032 94.928-16.802 9.417-33.854 14.496-53 17.997-11.049 2.02-21.526 5.93-31.016 12.051-5.954 3.842-11.068 9.74-17.758 12.295-19.142 7.307-58.312-14.795-71.223-29.295m184.94-127.06c7.135-35.502-34.351-31.925-57.945-38.188-13.484-3.579-29.738-9.008-43.419-4.987-14.841 4.362-26.452 15.429-40.73 20.788-15.92 5.975-33.808 9.59-50.604 12.245-23.482 3.712-13.682 16.464-11.246 34.199 2.233 16.265-1.504 34.23 1.948 50 1.818 8.306 7.161 14.313 10.801 22 5.938 12.543 7.095 25.82 17.682 35.764 11.144 10.46 25.624 14.406 39.958 18.241 14.973 4.005 18.615 0.313 30.834-8.727 13.81-10.216 28.781-10.736 44.396-15.097 16.886-4.715 34.397-11.205 48.433-21.934 14.675-11.217 22.916-30.452 20.131-48.568-1.919-12.488-7.606-24.556-9.983-36.986-1.175-6.13-1.542-12.348-0.256-18.75z" fill="#ff0" stroke="#000"/>
<g transform="translate(-6.4696 -3.3244e-6)" fill="#231f20">
		<circle cx="419.69" cy="253.58" r=".917"/>
		<circle cx="421.5" cy="269.9" r=".917"/>
		<circle cx="398.54" cy="233.4" r=".917"/>
		<circle cx="424.48" cy="249.45" r=".917"/>
		<circle cx="408.92" cy="236.56" r=".916"/>
		<circle cx="429.56" cy="248.62" r=".917"/>
		<circle cx="416" cy="244.98" r=".917"/>
		<circle cx="421.5" cy="242.81" r=".917"/>
		<circle cx="420.77" cy="257.54" r=".917"/>
		<circle cx="414.58" cy="234.98" r=".917"/>
		<circle cx="421.96" cy="238.65" r=".917"/>
		<circle cx="418.68" cy="233.45" r=".917"/>
	<circle cx="409.96" cy="231.21" r=".917"/>
</g>
<g transform="translate(-6.4696 -3.3244e-6)" fill="#231f20">
		<circle cx="374.42" cy="305.9" r=".917"/>
		<circle cx="411.29" cy="285.02" r=".917"/>
		<path d="m411.33 291.44c-0.146 0.134-0.413 0.219-0.57 0.292-0.483 0.225-1.219 0.628-1.219-0.249 0-0.506 0.41-0.916 0.917-0.916 0.269 0 1.001 0.322 0.976 0.686-6e-3 0.071-0.046 0.133-0.104 0.187z"/>
		<circle cx="401.23" cy="294.2" r=".917"/>
		<circle cx="402.87" cy="297.83" r=".916"/>
		<circle cx="392.67" cy="295.15" r=".917"/>
		<circle cx="419.42" cy="278.98" r=".917"/>
		<circle cx="418.27" cy="269.25" r=".917"/>
		<circle cx="425.85" cy="283.46" r=".917"/>
		<circle cx="385.92" cy="301.48" r=".917"/>
		<path d="m377.32 297.3c0.025 0.075 0.051 0.151 0.077 0.225-0.389 0.196-1.536 0.278-1.827-0.175-0.302-0.471 0.371-0.958 0.812-0.958 0.605-1e-3 0.782 0.449 0.938 0.908z"/>
		<circle cx="418.21" cy="285.6" r=".917"/>
	<circle cx="382.88" cy="296.21" r=".917"/>
</g>
<polyline transform="translate(-6.4696 -3.3244e-6)" points="518.66 412.22 381 266.9 381.47 268.93" fill="none" stroke="#000"/>
<polyline transform="translate(-6.4696 -3.3244e-6)" points="519.67 397.73 405 282.4 407.41 283.66" fill="none" stroke="#000" stroke-linejoin="round"/>
<polyline transform="translate(-6.4696 -3.3244e-6)" points="519.67 382.06 413 270.4 415.41 271.66" fill="none" stroke="#000" stroke-linejoin="round"/>
<polyline transform="translate(-6.4696 -3.3244e-6)" points="521.33 373.06 613.33 373.06 613.33 422.4 521.33 422.4" fill="none" stroke="#298224"/>
<polyline transform="translate(-6.4696 -3.3244e-6)" points="434.52 258.61 432.58 257.86 576.33 227.73 438.86 242.53 440.33 241.06" fill="none" stroke="#000"/>
<polyline transform="translate(-6.4696 -3.3244e-6)" points="569 190.4 407.5 217.52 409.33 218.52" fill="none" stroke="#000"/>
<polyline transform="translate(-6.4696 -3.3244e-6)" points="339 415.4 353.96 289.56 352.83 291.31" fill="none" stroke="#000"/>
<linearGradient id="d" x1="407.99" x2="413.59" y1="204.96" y2="204.96" gradientTransform="translate(2.4547e-6)" gradientUnits="userSpaceOnUse">
	<stop stop-color="#FCC0A7" offset="0"/>
	<stop stop-color="#FCBDA4" offset=".2456"/>
	<stop stop-color="#FCB49B" offset=".4183"/>
	<stop stop-color="#FCA48B" offset=".5685"/>
	<stop stop-color="#FC8E75" offset=".706"/>
	<stop stop-color="#FC7259" offset=".8347"/>
	<stop stop-color="#FC5037" offset=".9554"/>
	<stop stop-color="#FC4128" offset="1"/>
</linearGradient>
<path d="m406.5 203.35c-2.429-2.779-6.843 0.88-4.133 3.543 2.114 2.076 6.342-1.016 4.133-3.543z" fill="url(#d)"/>
<path d="m402.78 206.39c1.711 1.275 2.564-2.446 1.278-3.258-1.664-1.051-2.483 2.36-1.278 3.258z" fill="red" stroke="#ffffbf" stroke-width=".25"/>
<linearGradient id="c" x1="373.32" x2="378.92" y1="218.96" y2="218.96" gradientTransform="translate(2.4547e-6)" gradientUnits="userSpaceOnUse">
	<stop stop-color="#FCC0A7" offset="0"/>
	<stop stop-color="#FCBDA4" offset=".2456"/>
	<stop stop-color="#FCB49B" offset=".4183"/>
	<stop stop-color="#FCA48B" offset=".5685"/>
	<stop stop-color="#FC8E75" offset=".706"/>
	<stop stop-color="#FC7259" offset=".8347"/>
	<stop stop-color="#FC5037" offset=".9554"/>
	<stop stop-color="#FC4128" offset="1"/>
</linearGradient>
<path d="m371.83 217.35c-2.429-2.779-6.843 0.88-4.133 3.543 2.114 2.076 6.342-1.016 4.133-3.543z" fill="url(#c)"/>
<path d="m368.11 220.39c1.711 1.275 2.564-2.446 1.278-3.258-1.664-1.051-2.483 2.36-1.278 3.258z" fill="red" stroke="#ffffbf" stroke-width=".25"/>
<polyline transform="translate(-6.4696 -3.3244e-6)" points="521.67 72.063 389.5 180.52 391.33 181.52" fill="none" stroke="#000"/>
<linearGradient id="b" x1="407.32" x2="412.93" y1="195.63" y2="195.63" gradientTransform="translate(2.4547e-6)" gradientUnits="userSpaceOnUse">
	<stop stop-color="#FCC0A7" offset="0"/>
	<stop stop-color="#FCBDA4" offset=".2456"/>
	<stop stop-color="#FCB49B" offset=".4183"/>
	<stop stop-color="#FCA48B" offset=".5685"/>
	<stop stop-color="#FC8E75" offset=".706"/>
	<stop stop-color="#FC7259" offset=".8347"/>
	<stop stop-color="#FC5037" offset=".9554"/>
	<stop stop-color="#FC4128" offset="1"/>
</linearGradient>
<path d="m405.83 194.02c-2.429-2.779-6.843 0.88-4.133 3.543 2.114 2.076 6.342-1.016 4.133-3.543z" fill="url(#b)"/>
<polyline transform="translate(-6.4696 -3.3244e-6)" points="412 204.06 536 98.73 385.33 207.06" fill="none" stroke="#000"/>
<g transform="translate(-6.4696 -3.3244e-6)">
	<circle cx="357.93" cy="186.81" r="5" fill="#0a50a1"/>
	<radialGradient id="a" cx="356.86" cy="186.13" r="3.2629" gradientTransform="translate(6.4696 3.3244e-6)" gradientUnits="userSpaceOnUse">
		<stop stop-color="#34B3D1" offset="0"/>
		<stop stop-color="#CCEBB9" offset=".9213"/>
	</radialGradient>
	<path d="m356.99 182.89c-4.66-0.275-4.392 6.541 2e-3 6.498 4.147-0.04 4.217-6.938-2e-3 -6.498" fill="url(#a)" stroke="#0d3795" stroke-width=".5"/>
</g>
<g transform="translate(-6.4696 -3.3244e-6)">
	<path d="m354.68 142.75c-6.276 8.873 1.665 15.036 8 19.96 4.504 3.5 10.594 11.743 15.5 4.038 4.676-7.343 0.929-15.736-6.014-19.374-5.108-2.677-12.204-8.205-17.986-4.625" fill="#d6efba" stroke="#addfb6"/>
	<path d="m354.56 144.13c-2.383 2.165-1.507 6.187-0.334 8.67 1.704 3.607 4.717 6.147 7.839 8.468 2.025 1.505 3.582 3.056 5.324 4.899 1.728 1.828 4.116 4.67 6.829 3.421 3.203-1.475 4.44-6.207 3.183-9.329-2.099-5.211-8.066-7.768-12.479-10.635-2.56-1.664-7.082-8.115-10.529-4.996" fill="#ffffbf"/>
	<path d="m355.45 145.34c-1.794 1.852-1.134 4.549-0.353 6.658 1.579 4.255 1.695 0.181 4.021-0.589 0.39 1.365-1.476 2.126-1.544 3.403-0.063 1.181 1.158 2.042 1.881 2.768 0.842 0.846 1.782 2.461 3.189 2.078 1.438-0.391 2.01-3.375 3.967-2.791-0.428 2.735-3.614 2.557-1.25 5.533 0.572 0.719 1.605 1.989 2.491 2.314 1.587 0.583 2.182-1.399 3.875-1.045-0.012 1.043-1.308 1.837-1.977 2.526 1.784 1.935 5.72-0.145 6.187-2.642 0.224-1.2-0.619-3.821-1.754-4.408-1.651-0.856-3.374 2.082-5.453 2.304 0.225-1.554 2.463-2.594 2.685-4 0.223-1.417-2.133-2.661-3.112-3.393-0.989-0.74-1.767-1.842-3.085-1.521-1.466 0.356-2.13 2.409-3.784 2.308 0.495-1.556 2.788-2.852 1.926-4.537-0.326-0.638-3.442-2.907-4.367-2.768-0.585 0.087-1.019 1.484-1.745 1.387-1.229-0.164 0.197-1.161 0.264-1.627 0.212-1.472-0.833-1.91-2.246-1.633" fill="#addfb6"/>
</g>
<polyline transform="translate(-6.4696 -3.3244e-6)" points="383.94 148.54 382.46 150.82 448.99 70.726 395.66 158.06" fill="none" stroke="#000" stroke-linejoin="round"/>
<polyline transform="translate(-6.4696 -3.3244e-6)" points="262.67 177.73 124.5 149.4 260.67 187.06" fill="none" stroke="#000"/>
<polyline transform="translate(-6.4696 -3.3244e-6)" points="199.5 86.396 252.33 167.4 248.96 165.76" fill="none" stroke="#000"/>
<line x1="188.53" x2="227.03" y1="107.9" y2="164.4" fill="none" stroke="#000" stroke-linecap="round"/>
<polyline transform="matrix(.95248 0 0 1 -2.4301 -3.3244e-6)" points="122.33 176.73 10.333 176.73 10.333 137.4 122.33 137.4" fill="none" stroke="#298224" stroke-width="1.0246"/>
<path d="m244.4 198.4c0.57-0.72 2.152-4.686 1.379-5.422-0.712-0.678-1.904 3-2.034 3.789-0.122 0.74-0.285 2.822 0.655 1.633z" fill="#ff0"/>
<path d="m258.91 193.26c0.371-0.548 2.579-4.419 1.007-4.704-0.658-0.119-0.712 0.721-0.883 1.092-0.354 0.769-1.724 3.304-0.124 3.612z" fill="#ff0"/>
<polyline transform="translate(-6.4696 -3.3244e-6)" points="125 165.9 250.22 196.77 249 195.9" fill="none" stroke="#000"/>
<line x1="106.03" x2="245.03" y1="258.9" y2="262.9" fill="none" stroke="#000"/>
<line x1="108.03" x2="257.17" y1="300.4" y2="289.33" fill="none" stroke="#000"/>
<line x1="135.53" x2="290.03" y1="353.9" y2="311.9" fill="none" stroke="#000"/>
<line x1="101.03" x2="273.53" y1="226.4" y2="225.4" fill="none" stroke="#000"/>
<line x1="100.03" x2="311.53" y1="212.4" y2="213.4" fill="none" stroke="#000"/>
<polyline transform="translate(-6.4696 -3.3244e-6)" points="105.5 233.4 43.5 233.4 43.5 204.4 105.5 204.4" fill="none" stroke="#298224"/>
<circle transform="translate(-6.4696 -3.3244e-6)" cx="305.44" cy="320.51" r="1.833" fill="#ffff7f"/>
<ellipse transform="matrix(.7735 .6338 -.6338 .7735 268.79 -134.15)" cx="325.33" cy="318.06" rx="1.666" ry="2" fill="#ffff7f"/>
<circle transform="translate(-6.4696 -3.3244e-6)" cx="314" cy="313.73" r="1.833" fill="#ffff7f"/>
<ellipse transform="translate(-6.4696 -3.3244e-6)" cx="327.83" cy="299.23" rx="1.667" ry="2" fill="#ffff7f"/>
<polyline transform="translate(-6.4696 -3.3244e-6)" points="304.28 321.93 255.67 390.73 324.33 317.73" fill="none" stroke="#000"/>
<text x="517.30786" y="69.627892" fill="black" font-family="Arial" font-size="12px" stroke-width="1px" style="line-height:125%" xml:space="preserve"><tspan x="517.30786" y="69.627892">Golgi-Apparat</tspan></text>
<text x="533.61713" y="97.228142" fill="black" font-family="Arial" font-size="12px" stroke-width="1px" style="line-height:125%" xml:space="preserve"><tspan x="533.61713" y="97.228142">Golgi-Vesikel</tspan></text>
<text x="565.60828" y="177.51978" fill="black" font-family="Arial" font-size="12px" stroke-width="1px" style="line-height:125%" xml:space="preserve"><tspan x="565.60828" y="177.51978">glattes </tspan><tspan x="565.60828" y="192.51978">endoplasmatisches </tspan><tspan x="565.60828" y="207.51978">Retikulum</tspan></text>
<text x="571.88116" y="232.09299" fill="black" font-family="Arial" font-size="12px" stroke-width="1px" style="line-height:125%" xml:space="preserve"><tspan x="571.88116" y="232.09299">Ribosomen</tspan></text>
<text x="515.65326" y="387.65805" fill="black" font-family="Arial" font-size="12px" stroke-width="1px" style="line-height:125%" xml:space="preserve"><tspan x="515.65326" y="387.65805">Kernpore</tspan></text>
<text x="516.05334" y="370.09424" fill="#298224" font-family="Arial" font-size="12px" stroke-width="1px" style="line-height:125%" xml:space="preserve"><tspan x="516.05334" y="370.09424">Zellkern</tspan></text>
<text x="515.65326" y="401.23715" fill="black" font-family="Arial" font-size="12px" stroke-width="1px" style="line-height:125%" xml:space="preserve"><tspan x="515.65326" y="401.23715">Kernmembran</tspan></text>
<text x="515.65326" y="415.88556" fill="black" font-family="Arial" font-size="12px" stroke-width="1px" style="line-height:125%" xml:space="preserve"><tspan x="515.65326" y="415.88556">Kernkrchen</tspan></text>
<text x="279.56937" y="427.80386" fill="black" font-family="Arial" font-size="12px" stroke-width="1px" style="line-height:125%" xml:space="preserve"><tspan x="279.56937" y="427.80386">raues</tspan><tspan x="279.56937" y="442.80386">endoplasmatisches </tspan><tspan x="279.56937" y="457.80386">Retikulum</tspan></text>
<text x="71.31295" y="356.29413" fill="black" font-family="Arial" font-size="12px" stroke-width="1px" style="line-height:125%" xml:space="preserve"><tspan x="71.31295" y="356.29413">Zytoplasma</tspan></text>
<text x="24.77619" y="261.57507" fill="black" font-family="Arial" font-size="12px" stroke-width="1px" style="line-height:125%" xml:space="preserve"><tspan x="24.77619" y="261.57507">Mitochondrium</tspan></text>
<text x="107.55054" y="69.197403" fill="black" font-family="Arial" font-size="12px" stroke-width="1px" style="line-height:125%" xml:space="preserve"><tspan x="107.55054" y="69.197403">Plasmodesmen</tspan></text>
<text x="119.17972" y="88.535408" fill="black" font-family="Arial" font-size="12px" stroke-width="1px" style="line-height:125%" xml:space="preserve"><tspan x="119.17972" y="88.535408">Zellmembran</tspan></text>
<text x="137.89307" y="108.60831" fill="black" font-family="Arial" font-size="12px" stroke-width="1px" style="line-height:125%" xml:space="preserve"><tspan x="137.89307" y="108.60831">Zellwand</tspan></text>
<text x="11.364433" y="151.29225" fill="black" font-family="Arial" font-size="12px" stroke-width="1px" style="line-height:125%" xml:space="preserve"><tspan x="11.364433" y="151.29225">Thylakoidmembran</tspan></text>
<text x="55.520683" y="169.65875" fill="black" font-family="Arial" font-size="12px" stroke-width="1px" style="line-height:125%" xml:space="preserve"><tspan x="55.520683" y="169.65875">Stekorn</tspan></text>
<text x="217.96814" y="403.62146" fill="black" font-family="Arial" font-size="12px" stroke-width="1px" text-align="center" text-anchor="middle" style="line-height:125%" xml:space="preserve"><tspan x="219.6322" y="403.62146">kleine membran</tspan><tspan x="217.96814" y="418.62146">Vesikel</tspan></text>
<text x="35.447578" y="202.03757" fill="#298224" font-family="Arial" font-size="12px" stroke-width="1px" style="line-height:125%" xml:space="preserve"><tspan x="35.447578" y="202.03757">Vakuole</tspan></text>
<text x="55.887016" y="216.44217" fill="black" font-family="Arial" font-size="12px" stroke-width="1px" style="line-height:125%" xml:space="preserve"><tspan x="55.887016" y="216.44217">Vakuole</tspan></text>
<text x="46.535454" y="228.32932" fill="black" font-family="Arial" font-size="12px" stroke-width="1px" style="line-height:125%" xml:space="preserve"><tspan x="46.535454" y="228.32932">Tonoplast</tspan></text>
<text x="394.3613" y="65.864227" fill="black" font-family="Arial" font-size="12px" stroke-width="1px" style="line-height:125%" xml:space="preserve"><tspan x="394.3613" y="65.864227">Zytoskelettfilamente</tspan></text>
<text x="6.2422199" y="134.84331" fill="#298224" font-family="Arial" font-size="12px" stroke-width="1px" style="line-height:125%" xml:space="preserve"><tspan x="6.2422199" y="134.84331">Chloroplast</tspan></text>
<text x="47.468136" y="304.26562" fill="black" font-family="Arial" font-size="12px" stroke-width="1px" style="line-height:125%" xml:space="preserve"><tspan x="47.468136" y="304.26562">Peroxisom</tspan></text>
</svg>
